<svg width="1060" height="149" viewBox="0 0 1060 149" fill="none" xmlns="http://www.w3.org/2000/svg">
<path d="M-20.189 309.233C-20.113 309.195 -20.0001 309.141 -19.8504 309.069C-19.5505 308.927 -19.1018 308.72 -18.5042 308.46C-17.3089 307.941 -15.5155 307.208 -13.1144 306.356C-8.31201 304.651 -1.07813 302.463 8.66724 300.522C28.1594 296.639 57.6962 293.741 97.919 297.656C178.365 305.487 301.542 340.568 472.6 449.502C643.559 558.373 766.586 593.384 846.841 601.196C886.968 605.102 916.406 602.209 935.8 598.345C945.497 596.413 952.685 594.238 957.443 592.549C959.822 591.705 961.594 590.982 962.768 590.471C963.355 590.216 963.794 590.013 964.084 589.875C964.229 589.807 964.336 589.754 964.407 589.718C964.443 589.701 964.47 589.687 964.487 589.679L964.51 589.666C964.511 589.667 964.52 589.684 964.74 590.11C964.946 590.508 964.966 590.551 964.967 590.556L964.938 590.571C964.919 590.581 964.89 590.595 964.852 590.614C964.776 590.652 964.663 590.707 964.513 590.778C964.213 590.921 963.764 591.129 963.167 591.388C961.972 591.908 960.178 592.64 957.777 593.492C952.975 595.197 945.741 597.384 935.995 599.326C916.503 603.209 886.966 606.107 846.743 602.191C766.297 594.361 643.121 559.279 472.063 450.346C301.105 341.475 178.077 306.463 97.8225 298.651C57.6958 294.745 28.258 297.639 8.86368 301.503C-0.833454 303.435 -8.02144 305.609 -12.7795 307.298C-15.1586 308.143 -16.9313 308.866 -18.106 309.377C-18.6929 309.632 -19.1305 309.835 -19.4204 309.973C-19.5654 310.042 -19.674 310.094 -19.7451 310.129C-19.7803 310.147 -19.8065 310.16 -19.8237 310.169L-19.8471 310.181C-19.8489 310.179 -19.8653 310.148 -20.0773 309.737C-20.3057 309.294 -20.3056 309.292 -20.304 309.291L-20.2754 309.277C-20.2558 309.267 -20.2268 309.252 -20.189 309.233ZM-17.9411 302.19C-17.8651 302.153 -17.7522 302.098 -17.6026 302.027C-17.3026 301.884 -16.8539 301.677 -16.2564 301.418C-15.061 300.898 -13.2676 300.165 -10.8665 299.313C-6.06415 297.608 1.16975 295.421 10.9151 293.479C30.4073 289.596 59.9441 286.698 100.167 290.614C180.613 298.444 303.79 333.526 474.848 442.46C645.807 551.33 768.834 586.341 849.088 594.153C889.215 598.059 918.653 595.166 938.048 591.302C947.745 589.371 954.932 587.195 959.69 585.506C962.069 584.662 963.841 583.939 965.016 583.428C965.603 583.173 966.042 582.97 966.332 582.833C966.476 582.764 966.584 582.711 966.655 582.676C966.691 582.658 966.717 582.644 966.735 582.636L966.758 582.624C966.759 582.625 966.773 582.651 966.988 583.067C967.199 583.475 967.215 583.51 967.215 583.513L967.186 583.528C967.167 583.538 967.138 583.553 967.1 583.571C967.024 583.609 966.91 583.664 966.76 583.736C966.461 583.878 966.012 584.086 965.415 584.346C964.219 584.865 962.426 585.597 960.025 586.449C955.223 588.154 947.989 590.342 938.243 592.283C918.751 596.166 889.214 599.064 848.991 595.149C768.545 587.318 645.369 552.237 474.311 443.303C303.353 334.432 180.325 299.42 100.07 291.608C59.9437 287.703 30.5058 290.597 11.1115 294.46C1.41443 296.392 -5.77358 298.566 -10.5317 300.255C-12.9107 301.1 -14.6835 301.823 -15.8581 302.334C-16.445 302.589 -16.8826 302.792 -17.1726 302.93C-17.3175 302.999 -17.4261 303.051 -17.4973 303.087C-17.5325 303.104 -17.5587 303.117 -17.5758 303.126L-17.5992 303.138C-17.5999 303.138 -17.6001 303.138 -17.8294 302.694C-18.058 302.251 -18.0577 302.249 -18.0561 302.249L-18.0275 302.234C-18.0079 302.224 -17.979 302.209 -17.9411 302.19ZM-15.6928 295.148C-15.6168 295.111 -15.5038 295.056 -15.3542 294.985C-15.0543 294.842 -14.6055 294.635 -14.0081 294.376C-12.8127 293.856 -11.0192 293.123 -8.61821 292.271C-3.81584 290.566 3.41821 288.379 13.1634 286.437C32.6556 282.554 62.1925 279.656 102.415 283.572C182.861 291.402 306.039 326.484 477.097 435.418C648.055 544.288 771.083 579.3 851.337 587.111C891.464 591.017 920.902 588.124 940.296 584.26C949.993 582.329 957.181 580.153 961.939 578.464C964.318 577.62 966.09 576.897 967.264 576.386C967.851 576.131 968.29 575.928 968.58 575.791C968.725 575.722 968.832 575.669 968.904 575.634C968.939 575.616 968.966 575.602 968.983 575.594L969.006 575.582C969.008 575.584 969.027 575.619 969.237 576.026C969.447 576.433 969.463 576.468 969.463 576.471L969.435 576.486C969.415 576.496 969.386 576.511 969.348 576.529C969.272 576.567 969.159 576.622 969.009 576.694C968.709 576.836 968.26 577.044 967.663 577.304C966.468 577.823 964.674 578.555 962.274 579.407C957.471 581.112 950.237 583.3 940.491 585.241C920.999 589.124 891.462 592.022 851.239 588.107C770.794 580.276 647.617 545.195 476.559 436.261C305.601 327.391 182.573 292.378 102.319 284.566C62.1922 280.661 32.7541 283.555 13.3598 287.418C3.66289 289.35 -3.52526 291.524 -8.28337 293.213C-10.6622 294.058 -12.4351 294.781 -13.6098 295.292C-14.1966 295.547 -14.6343 295.75 -14.9243 295.888C-15.0691 295.957 -15.1778 296.009 -15.249 296.045C-15.284 296.062 -15.3103 296.075 -15.3275 296.084L-15.3509 296.096C-15.3516 296.096 -15.3519 296.096 -15.5811 295.652C-15.8097 295.209 -15.8094 295.207 -15.8078 295.207L-15.7792 295.192C-15.7596 295.182 -15.7306 295.167 -15.6928 295.148ZM-13.445 288.106C-13.369 288.068 -13.256 288.013 -13.1064 287.942C-12.8064 287.799 -12.3577 287.593 -11.7602 287.333C-10.5648 286.813 -8.77147 286.08 -6.37035 285.228C-1.56798 283.523 5.66593 281.336 15.4113 279.394C34.9035 275.511 64.4403 272.614 104.663 276.529C185.109 284.359 308.286 319.441 479.344 428.375C650.303 537.245 773.33 572.257 853.585 580.069C893.712 583.974 923.15 581.081 942.544 577.218C952.241 575.286 959.429 573.111 964.187 571.422C966.566 570.577 968.338 569.854 969.512 569.343C970.099 569.088 970.538 568.886 970.828 568.748C970.973 568.679 971.08 568.626 971.151 568.591C971.187 568.573 971.214 568.56 971.231 568.551L971.254 568.539C971.256 568.541 971.274 568.575 971.484 568.983C971.695 569.39 971.711 569.425 971.711 569.428L971.682 569.443C971.663 569.453 971.634 569.468 971.596 569.487C971.52 569.524 971.407 569.58 971.257 569.651C970.957 569.793 970.508 570.001 969.911 570.261C968.716 570.781 966.922 571.512 964.521 572.364C959.719 574.069 952.485 576.257 942.739 578.198C923.247 582.081 893.71 584.979 853.487 581.064C773.041 573.233 649.865 538.152 478.807 429.218C307.849 320.348 184.821 285.336 104.567 277.524C64.4399 273.618 35.002 276.512 15.6077 280.375C5.91061 282.307 -1.2774 284.481 -6.03551 286.171C-8.41453 287.015 -10.1873 287.738 -11.3619 288.249C-11.9489 288.504 -12.3864 288.707 -12.6764 288.845C-12.8213 288.914 -12.9299 288.967 -13.0011 289.002C-13.0363 289.019 -13.0625 289.033 -13.0796 289.041L-13.1031 289.053C-13.1038 289.054 -13.1041 289.054 -13.3333 288.609C-13.5618 288.167 -13.5616 288.165 -13.56 288.164L-13.5313 288.149C-13.5117 288.139 -13.4828 288.124 -13.445 288.106ZM-11.1976 281.062C-11.1216 281.024 -11.0086 280.969 -10.859 280.898C-10.559 280.756 -10.1103 280.549 -9.51278 280.289C-8.31742 279.769 -6.52402 279.037 -4.12293 278.184C0.679437 276.479 7.91335 274.292 17.6587 272.351C37.1509 268.467 66.6877 265.57 106.91 269.485C187.356 277.316 310.534 312.397 481.592 421.331C652.55 530.201 775.578 565.213 855.832 573.025C895.959 576.931 925.397 574.038 944.791 570.174C954.489 568.242 961.676 566.067 966.434 564.378C968.813 563.533 970.585 562.811 971.76 562.3C972.347 562.044 972.785 561.842 973.075 561.704C973.22 561.635 973.328 561.582 973.399 561.547C973.434 561.53 973.461 561.516 973.478 561.507L973.502 561.495C973.503 561.495 973.512 561.512 973.732 561.939C973.935 562.333 973.957 562.379 973.959 562.385L973.93 562.399C973.91 562.409 973.881 562.424 973.844 562.443C973.767 562.481 973.654 562.536 973.504 562.607C973.204 562.75 972.756 562.957 972.158 563.217C970.963 563.737 969.17 564.468 966.769 565.32C961.966 567.025 954.732 569.213 944.986 571.155C925.494 575.038 895.957 577.935 855.735 574.02C775.289 566.19 652.112 531.108 481.055 422.174C310.096 313.304 187.068 278.292 106.814 270.48C66.6873 266.574 37.2494 269.468 17.8551 273.332C8.15803 275.264 0.970018 277.438 -3.78809 279.127C-6.16707 279.971 -7.93987 280.695 -9.11451 281.206C-9.70139 281.461 -10.139 281.664 -10.429 281.801C-10.5739 281.87 -10.6825 281.923 -10.7537 281.958C-10.7888 281.975 -10.8151 281.989 -10.8322 281.998L-10.8557 282.01C-10.8579 282.007 -10.8774 281.97 -11.0858 281.566C-11.3142 281.123 -11.3141 281.121 -11.3125 281.12L-11.2839 281.105C-11.2643 281.095 -11.2354 281.081 -11.1976 281.062ZM-8.94969 274.019C-8.8737 273.981 -8.76065 273.926 -8.6111 273.855C-8.31115 273.713 -7.86237 273.506 -7.26492 273.246C-6.06956 272.726 -4.2761 271.994 -1.87507 271.141C2.9273 269.437 10.1613 267.249 19.9066 265.308C39.3987 261.425 68.9355 258.527 109.158 262.442C189.604 270.273 312.782 305.354 483.84 414.288C654.798 523.159 777.826 558.17 858.08 565.982C898.207 569.888 927.645 566.995 947.039 563.131C956.736 561.199 963.924 559.024 968.682 557.335C971.061 556.491 972.833 555.768 974.007 555.257C974.595 555.001 975.033 554.799 975.323 554.661C975.468 554.593 975.576 554.54 975.647 554.504C975.682 554.487 975.709 554.473 975.726 554.464L975.749 554.452C975.75 554.453 975.759 554.47 975.98 554.896C976.183 555.29 976.205 555.336 976.206 555.342L976.178 555.357C976.158 555.366 976.129 555.381 976.091 555.4C976.015 555.438 975.902 555.493 975.752 555.564C975.452 555.707 975.004 555.914 974.406 556.174C973.211 556.694 971.418 557.425 969.017 558.278C964.214 559.982 956.98 562.17 947.234 564.112C927.742 567.995 898.205 570.893 857.983 566.977C777.537 559.147 654.36 524.065 483.302 415.132C312.344 306.261 189.316 271.249 109.062 263.437C68.9352 259.531 39.4973 262.425 20.103 266.289C10.406 268.221 3.21788 270.395 -1.54023 272.084C-3.91916 272.929 -5.692 273.652 -6.86665 274.163C-7.45347 274.418 -7.89117 274.621 -8.18112 274.759C-8.32595 274.827 -8.43466 274.88 -8.50581 274.915C-8.54089 274.933 -8.5672 274.946 -8.58436 274.955L-8.6078 274.967C-8.61002 274.964 -8.6292 274.927 -8.83798 274.523C-9.06632 274.08 -9.06627 274.078 -9.06469 274.077L-9.03605 274.062C-9.01647 274.053 -8.98744 274.038 -8.94969 274.019ZM-6.70182 266.976C-6.62583 266.939 -6.5128 266.884 -6.36324 266.812C-6.06328 266.67 -5.61451 266.463 -5.01706 266.203C-3.8217 265.684 -2.02823 264.951 0.372793 264.099C5.17517 262.394 12.4091 260.206 22.1544 258.265C41.6466 254.382 71.1834 251.484 111.406 255.399C191.852 263.23 315.029 298.311 486.088 407.246C657.046 516.116 780.073 551.127 860.328 558.939C900.455 562.845 929.893 559.952 949.287 556.088C958.984 554.156 966.172 551.981 970.93 550.292C973.309 549.448 975.081 548.725 976.255 548.214C976.843 547.959 977.281 547.756 977.571 547.618C977.716 547.55 977.823 547.497 977.895 547.461C977.93 547.444 977.957 547.43 977.974 547.422L977.997 547.409C977.998 547.41 978.009 547.43 978.228 547.853C978.434 548.253 978.454 548.294 978.454 548.299L978.426 548.314C978.406 548.324 978.377 548.339 978.339 548.357C978.263 548.395 978.15 548.45 978 548.521C977.7 548.664 977.251 548.872 976.654 549.131C975.459 549.651 973.665 550.383 971.265 551.235C966.462 552.94 959.228 555.127 949.482 557.069C929.99 560.952 900.453 563.85 860.23 559.934C779.785 552.104 656.608 517.023 485.55 408.089C314.592 299.218 191.564 264.206 111.31 256.394C71.1831 252.488 41.7451 255.382 22.3509 259.246C12.6538 261.178 5.46574 263.352 0.707631 265.041C-1.67129 265.886 -3.44414 266.609 -4.61879 267.12C-5.20561 267.375 -5.64331 267.578 -5.93325 267.716C-6.07809 267.785 -6.1868 267.837 -6.25795 267.872C-6.29303 267.89 -6.31934 267.903 -6.3365 267.912L-6.35993 267.924C-6.36063 267.924 -6.3608 267.924 -6.59011 267.48C-6.81859 267.037 -6.81841 267.035 -6.81682 267.034L-6.78818 267.02C-6.7686 267.01 -6.73958 266.995 -6.70182 266.976ZM-4.45438 259.935C-4.37847 259.897 -4.2653 259.842 -4.1158 259.771C-3.81592 259.628 -3.36701 259.422 -2.76962 259.162C-1.57433 258.642 0.219264 257.909 2.62024 257.057C7.42253 255.352 14.6567 253.165 24.4019 251.223C43.894 247.34 73.4309 244.443 113.654 248.358C194.099 256.188 317.277 291.27 488.335 400.204C659.293 509.074 782.321 544.086 862.575 551.898C902.702 555.803 932.14 552.91 951.534 549.047C961.232 547.115 968.419 544.94 973.177 543.251C975.556 542.406 977.328 541.683 978.503 541.173C979.09 540.917 979.529 540.715 979.819 540.577C979.963 540.508 980.071 540.455 980.142 540.42C980.177 540.402 980.204 540.389 980.221 540.38L980.245 540.368C980.246 540.368 980.255 540.385 980.475 540.812C980.685 541.219 980.702 541.254 980.702 541.257L980.673 541.272C980.653 541.282 980.624 541.297 980.587 541.316C980.511 541.353 980.397 541.409 980.247 541.48C979.947 541.623 979.499 541.83 978.902 542.09C977.706 542.61 975.913 543.341 973.512 544.193C968.71 545.898 961.475 548.086 951.73 550.027C932.237 553.911 902.7 556.808 862.478 552.893C782.032 545.062 658.855 509.981 487.798 401.047C316.839 292.177 193.811 257.165 113.557 249.353C73.4306 245.447 43.9925 248.341 24.5983 252.205C14.9013 254.136 7.71311 256.311 2.95507 258C0.576215 258.844 -1.19677 259.568 -2.37134 260.078C-2.95811 260.334 -3.39594 260.537 -3.68581 260.674C-3.8306 260.743 -3.93943 260.796 -4.01051 260.831C-4.04555 260.848 -4.07197 260.862 -4.08906 260.87L-4.11249 260.882C-4.11392 260.881 -4.12766 260.855 -4.34267 260.439C-4.55733 260.023 -4.56993 259.995 -4.56938 259.993L-4.54074 259.978C-4.52123 259.968 -4.49209 259.953 -4.45438 259.935ZM-2.20652 252.892C-2.1306 252.854 -2.01744 252.799 -1.86794 252.728C-1.56805 252.586 -1.11916 252.379 -0.521752 252.119C0.673541 251.599 2.46711 250.867 4.8681 250.014C9.67041 248.309 16.9045 246.122 26.6497 244.181C46.1419 240.297 75.6787 237.4 115.901 241.315C196.347 249.146 319.525 284.227 490.583 393.161C661.541 502.031 784.569 537.043 864.823 544.855C904.95 548.761 934.388 545.868 953.782 542.004C963.479 540.072 970.667 537.897 975.425 536.208C977.804 535.363 979.576 534.64 980.751 534.13C981.338 533.874 981.776 533.672 982.066 533.534C982.211 533.466 982.319 533.412 982.39 533.377C982.425 533.36 982.452 533.346 982.469 533.337L982.493 533.325C982.495 533.327 982.511 533.359 982.723 533.769C982.933 534.176 982.949 534.211 982.95 534.215L982.921 534.229C982.901 534.239 982.872 534.254 982.835 534.273C982.759 534.311 982.645 534.366 982.495 534.437C982.195 534.58 981.747 534.787 981.149 535.047C979.954 535.567 978.161 536.298 975.76 537.15C970.958 538.855 963.723 541.043 953.977 542.985C934.485 546.868 904.948 549.765 864.726 545.85C784.28 538.02 661.103 502.938 490.046 394.004C319.087 285.134 196.059 250.122 115.805 242.31C75.6784 238.404 46.2404 241.298 26.8462 245.162C17.1492 247.094 9.96099 249.268 5.20294 250.957C2.82405 251.801 1.05109 252.525 -0.123481 253.036C-0.710264 253.291 -1.14807 253.494 -1.43795 253.631C-1.58274 253.7 -1.69157 253.753 -1.76265 253.788C-1.79768 253.805 -1.8241 253.819 -1.8412 253.828L-1.86463 253.84C-1.8656 253.839 -1.87472 253.822 -2.09481 253.396C-2.30373 252.991 -2.32122 252.954 -2.32152 252.95L-2.29288 252.935C-2.27336 252.925 -2.24423 252.911 -2.20652 252.892ZM0.0422118 245.849C0.118198 245.811 0.23134 245.756 0.380795 245.685C0.680752 245.542 1.12964 245.336 1.72698 245.076C2.92234 244.556 4.71592 243.823 7.11683 242.971C11.9192 241.266 19.1533 239.079 28.8985 237.137C48.3906 233.254 77.9277 230.357 118.15 234.272C198.596 242.102 321.774 277.184 492.832 386.118C663.79 494.988 786.818 530 867.072 537.812C907.199 541.717 936.637 538.824 956.031 534.961C965.728 533.029 972.916 530.854 977.674 529.165C980.053 528.32 981.825 527.597 982.999 527.086C983.586 526.831 984.025 526.629 984.315 526.491C984.46 526.422 984.568 526.369 984.639 526.334C984.674 526.316 984.701 526.303 984.718 526.294L984.741 526.282C984.744 526.285 984.763 526.321 984.972 526.726C985.182 527.133 985.198 527.168 985.198 527.171L985.17 527.186C985.15 527.196 985.121 527.211 985.083 527.23C985.007 527.267 984.894 527.323 984.744 527.394C984.444 527.536 983.995 527.744 983.398 528.004C982.203 528.524 980.409 529.255 978.009 530.107C973.206 531.812 965.972 534 956.226 535.941C936.734 539.825 907.197 542.722 866.974 538.807C786.529 530.976 663.352 495.895 492.294 386.961C321.336 278.091 198.308 243.079 118.054 235.267C77.9273 231.361 48.4892 234.255 29.0949 238.118C19.398 240.05 12.2098 242.225 7.45167 243.914C5.07287 244.758 3.29989 245.481 2.12525 245.992C1.53853 246.247 1.10073 246.45 0.810783 246.588C0.666052 246.657 0.557236 246.71 0.486085 246.745C0.451106 246.762 0.424703 246.776 0.407535 246.784L0.384104 246.796C0.383406 246.797 0.383117 246.797 0.153923 246.352C-0.0746266 245.91 -0.0743724 245.908 -0.072786 245.907L-0.0441485 245.892C-0.0245695 245.882 0.00454751 245.867 0.0422118 245.849ZM2.29007 238.806C2.36606 238.768 2.47909 238.713 2.62866 238.642C2.92862 238.499 3.37738 238.293 3.97484 238.033C5.1702 237.513 6.96367 236.78 9.36469 235.928C14.1671 234.223 21.4011 232.036 31.1463 230.095C50.6385 226.211 80.1754 223.314 120.398 227.229C200.844 235.059 324.022 270.141 495.08 379.075C666.038 487.945 789.065 522.957 869.32 530.769C909.447 534.675 938.885 531.782 958.279 527.918C967.976 525.986 975.164 523.811 979.922 522.122C982.301 521.277 984.073 520.554 985.247 520.044C985.834 519.788 986.273 519.586 986.563 519.448C986.708 519.379 986.815 519.326 986.886 519.291C986.922 519.273 986.949 519.26 986.966 519.251L986.989 519.239C986.992 519.242 987.011 519.279 987.219 519.683C987.43 520.09 987.446 520.125 987.446 520.129L987.418 520.143C987.398 520.153 987.369 520.168 987.331 520.187C987.255 520.224 987.142 520.28 986.992 520.351C986.692 520.494 986.243 520.701 985.646 520.961C984.451 521.481 982.657 522.212 980.257 523.064C975.454 524.769 968.22 526.957 958.474 528.898C938.982 532.782 909.445 535.679 869.222 531.764C788.777 523.934 665.6 488.852 494.542 379.918C323.584 271.048 200.556 236.036 120.302 228.224C80.1751 224.318 50.737 227.212 31.3428 231.076C21.6458 233.007 14.4576 235.182 9.69953 236.871C7.32061 237.715 5.54776 238.439 4.37311 238.949C3.78628 239.205 3.34859 239.408 3.05865 239.545C2.9138 239.614 2.8051 239.667 2.73395 239.702C2.69885 239.719 2.67256 239.733 2.6554 239.741L2.63197 239.753C2.63127 239.754 2.63095 239.754 2.40179 239.31C2.17324 238.867 2.17349 238.865 2.17508 238.864L2.20371 238.849C2.2233 238.839 2.2523 238.824 2.29007 238.806ZM4.53749 231.762C4.61348 231.724 4.72662 231.669 4.87607 231.598C5.17603 231.456 5.62491 231.249 6.22226 230.989C7.41762 230.469 9.21118 229.737 11.6121 228.884C16.4145 227.18 23.6486 224.992 33.3937 223.051C52.8859 219.168 82.4228 216.27 122.645 220.185C203.091 228.016 326.269 263.097 497.327 372.031C668.285 480.902 791.313 515.913 871.567 523.725C911.694 527.631 941.132 524.738 960.526 520.874C970.224 518.942 977.411 516.767 982.169 515.078C984.548 514.234 986.32 513.511 987.495 513C988.082 512.745 988.52 512.542 988.81 512.404C988.955 512.336 989.063 512.283 989.134 512.247C989.169 512.23 989.196 512.216 989.213 512.207L989.237 512.195C989.238 512.196 989.247 512.214 989.467 512.639C989.67 513.033 989.692 513.079 989.694 513.085L989.665 513.1C989.645 513.109 989.616 513.124 989.579 513.143C989.503 513.181 989.389 513.236 989.239 513.307C988.939 513.45 988.491 513.657 987.893 513.917C986.698 514.437 984.905 515.168 982.504 516.021C977.702 517.726 970.467 519.913 960.721 521.855C941.229 525.738 911.692 528.636 871.47 524.72C791.024 516.89 667.847 481.808 496.79 372.875C325.831 264.004 202.803 228.992 122.549 221.18C82.4225 217.274 52.9845 220.168 33.5902 224.032C23.8932 225.964 16.7051 228.138 11.9469 229.827C9.56813 230.672 7.79517 231.395 6.62053 231.906C6.03381 232.161 5.59601 232.364 5.30606 232.502C5.16133 232.57 5.05251 232.623 4.98136 232.658C4.94639 232.676 4.91998 232.689 4.90281 232.698L4.87938 232.71C4.87868 232.71 4.87851 232.71 4.6492 232.266C4.42082 231.823 4.42091 231.821 4.42249 231.82L4.45113 231.805C4.47071 231.796 4.49983 231.781 4.53749 231.762ZM6.78493 224.721C6.86087 224.683 6.97394 224.628 7.12352 224.557C7.42342 224.414 7.87223 224.208 8.4697 223.948C9.66501 223.428 11.4585 222.695 13.8596 221.843C18.6619 220.138 25.8959 217.951 35.6412 216.009C55.1333 212.126 84.6702 209.229 124.893 213.144C205.339 220.974 328.516 256.056 499.574 364.99C670.532 473.86 793.56 508.872 873.814 516.683C913.941 520.589 943.379 517.696 962.774 513.833C972.471 511.901 979.658 509.726 984.417 508.037C986.795 507.192 988.567 506.469 989.742 505.958C990.329 505.703 990.768 505.501 991.058 505.363C991.202 505.294 991.31 505.241 991.381 505.206C991.417 505.188 991.444 505.175 991.461 505.166L991.484 505.154C991.485 505.154 991.494 505.171 991.714 505.598C991.923 506.002 991.941 506.039 991.941 506.043L991.912 506.058C991.893 506.068 991.864 506.083 991.826 506.102C991.75 506.139 991.636 506.195 991.487 506.266C991.187 506.408 990.738 506.616 990.141 506.876C988.945 507.396 987.152 508.127 984.751 508.979C979.949 510.684 972.714 512.872 962.969 514.813C943.477 518.696 913.94 521.594 873.717 517.679C793.271 509.848 670.095 474.767 499.037 365.833C328.079 256.963 205.051 221.95 124.796 214.139C84.6699 210.233 55.2318 213.127 35.8376 216.99C26.1406 218.922 18.9524 221.097 14.1944 222.786C11.8155 223.63 10.0426 224.353 8.86797 224.864C8.28112 225.119 7.8434 225.322 7.5535 225.46C7.40864 225.529 7.29991 225.582 7.22881 225.617C7.19369 225.634 7.16738 225.648 7.15026 225.656L7.12682 225.668C7.12492 225.666 7.10764 225.633 6.89664 225.224C6.6763 224.797 6.66877 224.78 6.66993 224.779L6.69857 224.764C6.71811 224.754 6.74715 224.739 6.78493 224.721ZM9.0328 217.678C9.10875 217.64 9.22177 217.585 9.37138 217.514C9.6713 217.371 10.1201 217.165 10.7176 216.905C11.9129 216.385 13.7063 215.652 16.1074 214.8C20.9097 213.095 28.1437 210.908 37.889 208.966C57.3812 205.083 86.918 202.186 127.141 206.101C207.587 213.931 330.764 249.013 501.822 357.947C672.78 466.817 795.808 501.829 876.062 509.641C916.189 513.547 945.627 510.653 965.022 506.79C974.719 504.858 981.906 502.683 986.664 500.994C989.043 500.149 990.815 499.426 991.99 498.916C992.577 498.66 993.016 498.458 993.306 498.32C993.45 498.251 993.558 498.198 993.629 498.163C993.665 498.145 993.691 498.132 993.709 498.123L993.732 498.111C993.733 498.111 993.742 498.128 993.962 498.555C994.172 498.962 994.189 498.997 994.189 499.001L994.16 499.015C994.141 499.025 994.112 499.04 994.074 499.059C993.998 499.096 993.884 499.152 993.734 499.223C993.434 499.366 992.986 499.573 992.389 499.833C991.193 500.353 989.4 501.084 986.999 501.936C982.197 503.641 974.962 505.829 965.217 507.77C945.725 511.654 916.188 514.551 875.965 510.636C795.519 502.805 672.343 467.724 501.285 358.79C330.326 249.92 207.299 214.908 127.044 207.096C86.9177 203.19 57.4797 206.084 38.0855 209.948C28.3884 211.879 21.2003 214.054 16.4423 215.743C14.0633 216.587 12.2904 217.311 11.1158 217.821C10.529 218.077 10.0913 218.28 9.80137 218.417C9.65648 218.486 9.54778 218.539 9.47667 218.574C9.44153 218.591 9.41525 218.605 9.39812 218.613L9.37469 218.625C9.37356 218.625 9.36269 218.604 9.14451 218.182C8.92618 217.759 8.91683 217.738 8.9178 217.736L8.94644 217.721C8.96598 217.711 8.99499 217.696 9.0328 217.678ZM11.2807 210.635C11.3566 210.597 11.4697 210.542 11.6192 210.471C11.9191 210.329 12.368 210.122 12.9654 209.862C14.1607 209.342 15.9542 208.61 18.3553 207.757C23.1576 206.052 30.3916 203.865 40.1369 201.924C59.629 198.04 89.1659 195.143 129.389 199.058C209.834 206.889 333.012 241.97 504.07 350.904C675.028 459.774 798.056 494.786 878.31 502.598C918.437 506.504 947.875 503.611 967.27 499.747C976.967 497.815 984.154 495.64 988.912 493.951C991.291 493.106 993.063 492.383 994.238 491.873C994.825 491.617 995.264 491.415 995.554 491.277C995.698 491.209 995.806 491.155 995.877 491.12C995.912 491.103 995.939 491.089 995.956 491.08L995.98 491.068C995.981 491.068 995.99 491.085 996.21 491.512C996.42 491.92 996.437 491.954 996.437 491.958L996.408 491.972C996.389 491.982 996.359 491.997 996.322 492.016C996.246 492.054 996.132 492.109 995.982 492.18C995.682 492.323 995.234 492.53 994.637 492.79C993.441 493.31 991.648 494.041 989.247 494.894C984.445 496.598 977.21 498.786 967.465 500.728C947.972 504.611 918.436 507.508 878.213 503.593C797.767 495.763 674.59 460.681 503.533 351.747C332.574 242.877 209.546 207.865 129.292 200.053C89.1656 196.147 59.7276 199.041 40.3333 202.905C30.6363 204.837 23.4482 207.011 18.6901 208.7C16.3112 209.544 14.5383 210.268 13.3637 210.779C12.7768 211.034 12.3391 211.237 12.0492 211.375C11.9044 211.443 11.7956 211.496 11.7245 211.531C11.6894 211.548 11.6631 211.562 11.646 211.571L11.6226 211.583C11.6212 211.581 11.6078 211.556 11.3924 211.139C11.1741 210.716 11.1647 210.695 11.1657 210.693L11.1943 210.678C11.2138 210.668 11.2429 210.654 11.2807 210.635ZM13.5294 203.592C13.6054 203.554 13.7185 203.499 13.868 203.428C14.1679 203.285 14.6168 203.079 15.2142 202.819C16.4095 202.299 18.2031 201.566 20.604 200.714C25.4064 199.009 32.6405 196.822 42.3856 194.88C61.8778 190.997 91.4148 188.1 131.637 192.015C212.083 199.845 335.261 234.927 506.319 343.861C677.277 452.731 800.305 487.743 880.559 495.555C920.686 499.46 950.124 496.567 969.518 492.704C979.215 490.772 986.403 488.597 991.161 486.908C993.54 486.063 995.312 485.34 996.487 484.829C997.074 484.574 997.512 484.372 997.802 484.234C997.947 484.165 998.055 484.112 998.126 484.077C998.161 484.059 998.188 484.046 998.205 484.037L998.229 484.025C998.23 484.027 998.247 484.059 998.459 484.469C998.668 484.874 998.685 484.911 998.685 484.914L998.657 484.929C998.637 484.939 998.608 484.954 998.57 484.973C998.494 485.01 998.381 485.066 998.231 485.137C997.931 485.279 997.483 485.487 996.885 485.747C995.69 486.267 993.897 486.998 991.496 487.85C986.693 489.555 979.459 491.743 969.713 493.684C950.221 497.568 920.684 500.465 880.462 496.55C800.016 488.719 676.839 453.638 505.781 344.704C334.823 235.834 211.795 200.822 131.541 193.01C91.4145 189.104 61.9764 191.998 42.5821 195.861C32.8852 197.793 25.697 199.968 20.9388 201.657C18.56 202.501 16.7871 203.224 15.6124 203.735C15.0257 203.99 14.5879 204.193 14.298 204.331C14.1532 204.4 14.0444 204.453 13.9733 204.488C13.9383 204.505 13.9119 204.519 13.8947 204.527L13.8713 204.539C13.8706 204.54 13.8704 204.54 13.6411 204.095C13.4126 203.653 13.4128 203.651 13.4144 203.65L13.443 203.635C13.4626 203.625 13.4917 203.61 13.5294 203.592ZM15.7764 196.549C15.8523 196.512 15.9654 196.457 16.115 196.385C16.4149 196.243 16.8637 196.036 17.4612 195.776C18.6565 195.257 20.4499 194.524 22.851 193.672C27.6533 191.967 34.8873 189.779 44.6326 187.838C64.1248 183.955 93.6615 181.057 133.884 184.972C214.33 192.803 337.508 227.884 508.566 336.819C679.524 445.689 802.552 480.7 882.806 488.512C922.933 492.418 952.371 489.525 971.765 485.661C981.462 483.729 988.65 481.554 993.408 479.865C995.787 479.021 997.559 478.298 998.734 477.787C999.321 477.532 999.759 477.329 1000.05 477.191C1000.19 477.123 1000.3 477.07 1000.37 477.034C1000.41 477.017 1000.43 477.003 1000.45 476.995L1000.48 476.983C1000.48 476.985 1000.5 477.02 1000.71 477.426C1000.92 477.834 1000.93 477.869 1000.93 477.872L1000.9 477.887C1000.88 477.897 1000.86 477.912 1000.82 477.93C1000.74 477.968 1000.63 478.023 1000.48 478.094C1000.18 478.237 999.73 478.445 999.132 478.704C997.937 479.224 996.144 479.956 993.743 480.808C988.94 482.513 981.706 484.7 971.96 486.642C952.468 490.525 922.931 493.423 882.709 489.508C802.263 481.677 679.086 446.595 508.028 337.662C337.07 228.791 214.042 193.779 133.788 185.967C93.6612 182.061 64.2233 184.955 44.8291 188.819C35.132 190.751 27.9439 192.925 23.1858 194.614C20.8069 195.459 19.034 196.182 17.8594 196.693C17.2726 196.948 16.8349 197.151 16.545 197.289C16.4001 197.358 16.2914 197.41 16.2203 197.445C16.1852 197.463 16.1588 197.476 16.1417 197.485L16.1183 197.497C16.1174 197.497 16.1098 197.483 15.8881 197.053C15.6787 196.647 15.6616 196.611 15.6614 196.607L15.69 196.593C15.7096 196.583 15.7386 196.568 15.7764 196.549ZM18.0242 189.506C18.1002 189.469 18.2132 189.414 18.3628 189.343C18.6628 189.2 19.1115 188.993 19.709 188.734C20.9043 188.214 22.6978 187.481 25.0989 186.629C29.9012 184.924 37.1352 182.737 46.8805 180.795C66.3726 176.912 95.9095 174.014 136.132 177.93C216.578 185.76 339.756 220.842 510.814 329.776C681.772 438.646 804.8 473.657 885.054 481.469C925.181 485.375 954.619 482.482 974.013 478.618C983.71 476.687 990.898 474.511 995.656 472.822C998.035 471.978 999.807 471.255 1000.98 470.744C1001.57 470.489 1002.01 470.287 1002.3 470.149C1002.44 470.08 1002.55 470.027 1002.62 469.992C1002.66 469.974 1002.68 469.96 1002.7 469.952L1002.72 469.94C1002.72 469.94 1002.73 469.957 1002.95 470.384C1003.16 470.779 1003.18 470.824 1003.18 470.829L1003.15 470.844C1003.13 470.854 1003.1 470.869 1003.07 470.887C1002.99 470.925 1002.88 470.98 1002.73 471.052C1002.43 471.194 1001.98 471.402 1001.38 471.662C1000.18 472.181 998.391 472.913 995.991 473.765C991.188 475.47 983.954 477.658 974.208 479.599C954.716 483.482 925.179 486.38 884.956 482.465C804.511 474.634 681.334 439.553 510.276 330.619C339.318 221.749 216.29 186.736 136.036 178.924C95.9092 175.019 66.4712 177.913 47.0769 181.776C37.3799 183.708 30.1918 185.882 25.4337 187.571C23.0547 188.416 21.2819 189.139 20.1073 189.65C19.5204 189.905 19.0827 190.108 18.7928 190.246C18.6479 190.315 18.5393 190.367 18.4681 190.403C18.4329 190.42 18.4067 190.433 18.3896 190.442L18.3661 190.454C18.3637 190.451 18.3432 190.412 18.136 190.01C17.911 189.574 17.9078 189.566 17.9092 189.565L17.9379 189.55C17.9575 189.54 17.9864 189.525 18.0242 189.506ZM20.2721 182.464C20.3481 182.426 20.461 182.371 20.6107 182.3C20.9106 182.157 21.3593 181.951 21.9569 181.691C23.1522 181.171 24.9456 180.438 27.3467 179.586C32.1491 177.881 39.383 175.694 49.1283 173.752C68.6205 169.869 98.1573 166.972 138.38 170.887C218.826 178.717 342.003 213.799 513.062 322.733C684.02 431.603 807.047 466.615 887.302 474.427C927.429 478.332 956.867 475.439 976.261 471.576C985.958 469.644 993.146 467.469 997.904 465.78C1000.28 464.935 1002.05 464.212 1003.23 463.701C1003.82 463.446 1004.26 463.244 1004.55 463.106C1004.69 463.037 1004.8 462.984 1004.87 462.949C1004.9 462.931 1004.93 462.918 1004.95 462.909L1004.97 462.897C1004.97 462.897 1004.98 462.914 1005.2 463.341C1005.41 463.746 1005.43 463.782 1005.43 463.786L1005.4 463.801C1005.38 463.811 1005.35 463.826 1005.31 463.845C1005.24 463.882 1005.12 463.938 1004.97 464.009C1004.67 464.151 1004.23 464.359 1003.63 464.619C1002.43 465.139 1000.64 465.87 998.239 466.722C993.436 468.427 986.202 470.615 976.456 472.556C956.964 476.439 927.427 479.337 887.204 475.422C806.758 467.591 683.582 432.51 512.524 323.576C341.566 214.706 218.538 179.693 138.284 171.882C98.157 167.976 68.7191 170.87 49.3248 174.733C39.6277 176.665 32.4397 178.84 27.6816 180.529C25.3025 181.373 23.5298 182.096 22.3551 182.607C21.7682 182.862 21.3306 183.065 21.0407 183.203C20.8957 183.272 20.7871 183.325 20.716 183.36C20.6808 183.377 20.6546 183.391 20.6374 183.399L20.614 183.411C20.6127 183.41 20.6 183.386 20.3838 182.967C20.1585 182.531 20.1556 182.523 20.1571 182.522L20.1857 182.507C20.2053 182.497 20.2342 182.482 20.2721 182.464ZM22.52 175.421C22.5959 175.383 22.7089 175.328 22.8586 175.257C23.1585 175.114 23.6072 174.908 24.2047 174.648C25.4001 174.128 27.1935 173.396 29.5946 172.543C34.3969 170.838 41.6309 168.651 51.3762 166.709C70.8684 162.826 100.405 159.929 140.628 163.844C221.074 171.674 344.251 206.756 515.309 315.69C686.268 424.56 809.295 459.572 889.549 467.384C929.676 471.29 959.115 468.397 978.509 464.533C988.206 462.601 995.394 460.426 1000.15 458.737C1002.53 457.892 1004.3 457.169 1005.48 456.659C1006.06 456.403 1006.5 456.201 1006.79 456.063C1006.94 455.994 1007.05 455.941 1007.12 455.906C1007.15 455.888 1007.18 455.875 1007.2 455.866L1007.22 455.854C1007.22 455.854 1007.23 455.871 1007.45 456.298C1007.66 456.701 1007.68 456.739 1007.68 456.744L1007.65 456.758C1007.63 456.768 1007.6 456.783 1007.56 456.802C1007.49 456.839 1007.37 456.895 1007.22 456.966C1006.92 457.109 1006.47 457.316 1005.88 457.576C1004.68 458.096 1002.89 458.827 1000.49 459.679C995.684 461.384 988.45 463.572 978.704 465.513C959.212 469.397 929.675 472.294 889.452 468.379C809.006 460.548 685.83 425.467 514.772 316.533C343.814 207.663 220.786 172.651 140.532 164.839C100.405 160.933 70.9669 163.827 51.5727 167.691C41.8756 169.622 34.6875 171.797 29.9294 173.486C27.5504 174.33 25.7776 175.054 24.603 175.564C24.0161 175.82 23.5785 176.023 23.2885 176.16C23.1436 176.229 23.035 176.282 22.9638 176.317C22.9287 176.334 22.9024 176.348 22.8853 176.356L22.8619 176.368C22.8602 176.367 22.8445 176.337 22.6317 175.925C22.408 175.491 22.4036 175.48 22.405 175.479L22.4336 175.464C22.4532 175.454 22.4821 175.439 22.52 175.421ZM24.7678 168.378C24.8438 168.34 24.9567 168.285 25.1064 168.214C25.4064 168.072 25.855 167.865 26.4526 167.605C27.648 167.085 29.4413 166.353 31.8425 165.5C36.6448 163.796 43.8787 161.608 53.6241 159.667C73.1163 155.783 102.653 152.886 142.876 156.801C223.322 164.632 346.499 199.713 517.557 308.647C688.516 417.518 811.543 452.529 891.797 460.341C931.924 464.247 961.362 461.354 980.757 457.49C990.454 455.558 997.641 453.383 1002.4 451.694C1004.78 450.849 1006.55 450.127 1007.73 449.616C1008.31 449.36 1008.75 449.158 1009.04 449.02C1009.19 448.951 1009.29 448.898 1009.36 448.863C1009.4 448.846 1009.43 448.832 1009.44 448.823L1009.47 448.811C1009.47 448.813 1009.48 448.84 1009.7 449.255C1009.91 449.663 1009.92 449.697 1009.92 449.701L1009.9 449.715C1009.88 449.725 1009.85 449.74 1009.81 449.759C1009.73 449.797 1009.62 449.852 1009.47 449.923C1009.17 450.066 1008.72 450.273 1008.12 450.533C1006.93 451.053 1005.14 451.784 1002.73 452.637C997.932 454.341 990.698 456.529 980.952 458.471C961.46 462.354 931.923 465.251 891.7 461.336C811.254 453.506 688.078 418.424 517.02 309.49C346.062 200.62 223.034 165.608 142.779 157.796C102.653 153.89 73.2148 156.784 53.8205 160.648C44.1234 162.58 36.9354 164.754 32.1773 166.443C29.7982 167.287 28.0255 168.011 26.8509 168.522C26.2639 168.777 25.8264 168.98 25.5364 169.118C25.3914 169.186 25.2829 169.239 25.2117 169.274C25.1765 169.292 25.1503 169.305 25.1332 169.314L25.1097 169.326C25.109 169.326 25.1088 169.326 24.8795 168.882C24.651 168.439 24.6513 168.437 24.6528 168.436L24.6815 168.421C24.7011 168.411 24.73 168.397 24.7678 168.378ZM27.0161 161.336C27.0921 161.298 27.2052 161.243 27.3547 161.172C27.6547 161.03 28.1035 160.823 28.7009 160.563C29.8963 160.043 31.6898 159.311 34.0908 158.458C38.8931 156.754 46.1272 154.566 55.8724 152.625C75.3646 148.742 104.901 145.844 145.124 149.759C225.57 157.59 348.748 192.671 519.806 301.605C690.764 410.475 813.792 445.487 894.046 453.299C934.173 457.205 963.611 454.312 983.005 450.448C992.702 448.516 999.89 446.341 1004.65 444.652C1007.03 443.807 1008.8 443.085 1009.97 442.574C1010.56 442.318 1011 442.116 1011.29 441.978C1011.43 441.91 1011.54 441.856 1011.61 441.821C1011.65 441.804 1011.67 441.79 1011.69 441.781L1011.72 441.769C1011.72 441.772 1011.74 441.808 1011.95 442.213C1012.16 442.62 1012.17 442.655 1012.17 442.659L1012.14 442.674C1012.12 442.683 1012.1 442.698 1012.06 442.717C1011.98 442.755 1011.87 442.81 1011.72 442.881C1011.42 443.024 1010.97 443.231 1010.37 443.491C1009.18 444.011 1007.38 444.742 1004.98 445.595C1000.18 447.299 992.946 449.487 983.2 451.429C963.708 455.312 934.171 458.209 893.948 454.294C813.503 446.464 690.326 411.382 519.268 302.449C348.31 193.578 225.282 158.566 145.028 150.754C104.901 146.848 75.4631 149.742 56.0688 153.606C46.3718 155.538 39.1837 157.712 34.4256 159.401C32.0467 160.245 30.2738 160.969 29.0992 161.48C28.5124 161.735 28.0747 161.938 27.7847 162.076C27.6399 162.144 27.5312 162.197 27.46 162.232C27.4249 162.25 27.3986 162.263 27.3815 162.272L27.358 162.284C27.3573 162.284 27.357 162.284 27.1279 161.84C26.8993 161.397 26.8996 161.395 26.9011 161.394L26.9298 161.379C26.9494 161.369 26.9784 161.355 27.0161 161.336ZM29.264 154.293C29.34 154.255 29.4529 154.2 29.6026 154.129C29.9025 153.987 30.3512 153.78 30.9488 153.52C32.1441 153 33.9375 152.268 36.3386 151.416C41.141 149.711 48.3749 147.523 58.1202 145.582C77.6124 141.699 107.149 138.801 147.372 142.716C227.818 150.547 350.995 185.628 522.053 294.562C693.012 403.433 816.039 438.444 896.294 446.256C936.421 450.162 965.859 447.269 985.253 443.405C994.95 441.473 1002.14 439.298 1006.9 437.609C1009.27 436.765 1011.05 436.042 1012.22 435.531C1012.81 435.276 1013.25 435.073 1013.54 434.935C1013.68 434.867 1013.79 434.814 1013.86 434.778C1013.9 434.761 1013.92 434.747 1013.94 434.738L1013.96 434.726C1013.97 434.729 1013.98 434.765 1014.19 435.17C1014.4 435.578 1014.42 435.612 1014.42 435.616L1014.39 435.631C1014.37 435.641 1014.34 435.655 1014.31 435.674C1014.23 435.712 1014.12 435.767 1013.97 435.838C1013.67 435.981 1013.22 436.188 1012.62 436.448C1011.42 436.968 1009.63 437.699 1007.23 438.552C1002.43 440.257 995.194 442.444 985.448 444.386C965.956 448.269 936.419 451.167 896.196 447.251C815.75 439.421 692.574 404.339 521.516 295.406C350.558 186.535 227.53 151.523 147.276 143.711C107.149 139.805 77.711 142.699 58.3167 146.563C48.6196 148.495 41.4316 150.669 36.6735 152.358C34.2944 153.203 32.5217 153.926 31.347 154.437C30.7601 154.692 30.3225 154.895 30.0326 155.033C29.8876 155.102 29.779 155.154 29.7079 155.189C29.6727 155.207 29.6465 155.22 29.6293 155.229L29.6059 155.241C29.6052 155.241 29.6049 155.241 29.3757 154.797C29.1472 154.354 29.1474 154.352 29.149 154.351L29.1776 154.337C29.1972 154.327 29.2261 154.312 29.264 154.293ZM31.5114 147.249C31.5874 147.212 31.7004 147.157 31.85 147.086C32.15 146.943 32.5987 146.736 33.1962 146.477C34.3916 145.957 36.1849 145.224 38.586 144.372C43.3884 142.667 50.6223 140.48 60.3677 138.538C79.8598 134.655 109.397 131.757 149.619 135.673C230.065 143.503 353.243 178.585 524.301 287.519C695.259 396.389 818.287 431.401 898.541 439.212C938.668 443.118 968.106 440.225 987.5 436.361C997.198 434.43 1004.38 432.254 1009.14 430.565C1011.52 429.721 1013.29 428.998 1014.47 428.487C1015.06 428.232 1015.49 428.03 1015.78 427.892C1015.93 427.823 1016.04 427.77 1016.11 427.735C1016.14 427.717 1016.17 427.703 1016.19 427.695L1016.21 427.683C1016.21 427.683 1016.22 427.7 1016.44 428.127C1016.64 428.522 1016.67 428.567 1016.67 428.572L1016.64 428.587C1016.62 428.597 1016.59 428.612 1016.55 428.63C1016.48 428.668 1016.36 428.723 1016.21 428.795C1015.91 428.937 1015.46 429.145 1014.87 429.405C1013.67 429.924 1011.88 430.656 1009.48 431.508C1004.68 433.213 997.441 435.401 987.695 437.342C968.203 441.225 938.666 444.123 898.444 440.208C817.998 432.377 694.821 397.296 523.764 288.362C352.805 179.492 229.777 144.479 149.523 136.667C109.396 132.762 79.9584 135.656 60.5641 139.519C50.867 141.451 43.679 143.625 38.9209 145.314C36.5419 146.159 34.7691 146.882 33.5945 147.393C33.0076 147.648 32.5699 147.851 32.28 147.989C32.1351 148.058 32.0264 148.11 31.9553 148.146C31.9201 148.163 31.8939 148.176 31.8767 148.185L31.8533 148.197C31.8512 148.194 31.8324 148.159 31.6231 147.753C31.3948 147.311 31.3948 147.308 31.3964 147.308L31.4251 147.293C31.4446 147.283 31.4736 147.268 31.5114 147.249ZM33.7593 140.207C33.8353 140.169 33.9483 140.114 34.0979 140.043C34.3978 139.9 34.8466 139.694 35.4441 139.434C36.6394 138.914 38.4328 138.181 40.8339 137.329C45.6363 135.624 52.8702 133.437 62.6155 131.495C82.1077 127.612 111.644 124.715 151.867 128.63C232.313 136.46 355.491 171.542 526.549 280.476C697.507 389.346 820.535 424.358 900.789 432.17C940.916 436.075 970.354 433.182 989.748 429.319C999.445 427.387 1006.63 425.212 1011.39 423.523C1013.77 422.678 1015.54 421.955 1016.72 421.444C1017.3 421.189 1017.74 420.987 1018.03 420.849C1018.18 420.78 1018.28 420.727 1018.36 420.692C1018.39 420.674 1018.42 420.661 1018.44 420.652L1018.46 420.64C1018.46 420.64 1018.47 420.657 1018.69 421.084C1018.89 421.478 1018.91 421.524 1018.92 421.529L1018.89 421.544C1018.87 421.554 1018.84 421.569 1018.8 421.588C1018.72 421.625 1018.61 421.681 1018.46 421.752C1018.16 421.894 1017.71 422.102 1017.12 422.362C1015.92 422.882 1014.13 423.613 1011.73 424.465C1006.92 426.17 999.689 428.358 989.943 430.299C970.451 434.183 940.914 437.08 900.691 433.165C820.246 425.334 697.069 390.253 526.011 281.319C355.053 172.449 232.025 137.437 151.771 129.625C111.644 125.719 82.2062 128.613 62.812 132.476C53.1149 134.408 45.9269 136.583 41.1687 138.272C38.7898 139.116 37.017 139.839 35.8423 140.35C35.2555 140.605 34.8178 140.808 34.5279 140.946C34.383 141.015 34.2743 141.068 34.2032 141.103C34.168 141.12 34.1418 141.134 34.1246 141.142L34.1012 141.154C34.0991 141.152 34.0805 141.116 33.871 140.71C33.6426 140.268 33.6427 140.266 33.6443 140.265L33.6729 140.25C33.6925 140.24 33.7215 140.225 33.7593 140.207ZM36.0071 133.164C36.0831 133.126 36.1962 133.071 36.3457 133C36.6457 132.857 37.0945 132.651 37.6919 132.391C38.8873 131.871 40.6807 131.139 43.0818 130.286C47.8841 128.581 55.1181 126.394 64.8634 124.453C84.3556 120.569 113.892 117.672 154.115 121.587C234.561 129.417 357.738 164.499 528.797 273.433C699.755 382.303 822.782 417.315 903.037 425.127C943.164 429.033 972.602 426.14 991.996 422.276C1001.69 420.344 1008.88 418.169 1013.64 416.48C1016.02 415.635 1017.79 414.912 1018.96 414.402C1019.55 414.146 1019.99 413.944 1020.28 413.806C1020.42 413.737 1020.53 413.684 1020.6 413.649C1020.64 413.631 1020.67 413.618 1020.68 413.609L1020.71 413.597C1020.71 413.598 1020.72 413.619 1020.94 414.041C1021.14 414.442 1021.16 414.482 1021.16 414.487L1021.13 414.501C1021.12 414.511 1021.09 414.526 1021.05 414.545C1020.97 414.582 1020.86 414.638 1020.71 414.709C1020.41 414.852 1019.96 415.059 1019.36 415.319C1018.17 415.839 1016.37 416.57 1013.97 417.422C1009.17 419.127 1001.94 421.315 992.191 423.256C972.699 427.14 943.162 430.037 902.939 426.122C822.494 418.292 699.317 383.21 528.259 274.276C357.301 165.406 234.273 130.394 154.019 122.582C113.892 118.676 84.4541 121.57 65.0598 125.434C55.3628 127.365 48.1747 129.54 43.4166 131.229C41.0377 132.073 39.2648 132.797 38.0902 133.307C37.5033 133.563 37.0657 133.766 36.7757 133.903C36.6309 133.972 36.5222 134.025 36.451 134.06C36.4159 134.077 36.3896 134.091 36.3725 134.099L36.349 134.112C36.3484 134.112 36.3482 134.112 36.1189 133.668C35.8904 133.225 35.8906 133.223 35.8922 133.222L35.9208 133.207C35.9404 133.197 35.9694 133.182 36.0071 133.164ZM38.255 126.121C38.331 126.083 38.4439 126.028 38.5936 125.957C38.8936 125.815 39.3422 125.608 39.9398 125.348C41.1351 124.828 42.9284 124.096 45.3296 123.243C50.132 121.539 57.3658 119.351 67.1113 117.41C86.6034 113.526 116.14 110.629 156.363 114.544C236.809 122.375 359.986 157.456 531.044 266.39C702.003 375.261 825.03 410.272 905.285 418.084C945.412 421.99 974.85 419.097 994.244 415.233C1003.94 413.301 1011.13 411.126 1015.89 409.437C1018.27 408.592 1020.04 407.87 1021.21 407.359C1021.8 407.103 1022.24 406.901 1022.53 406.763C1022.67 406.694 1022.78 406.641 1022.85 406.606C1022.89 406.589 1022.91 406.575 1022.93 406.566L1022.95 406.554C1022.96 406.555 1022.96 406.571 1023.18 406.998C1023.39 407.403 1023.41 407.44 1023.41 407.444L1023.38 407.459C1023.36 407.468 1023.33 407.483 1023.3 407.502C1023.22 407.54 1023.11 407.595 1022.96 407.666C1022.66 407.809 1022.21 408.016 1021.61 408.276C1020.42 408.796 1018.62 409.527 1016.22 410.38C1011.42 412.084 1004.18 414.272 994.439 416.214C974.947 420.097 945.41 422.994 905.187 419.079C824.741 411.249 701.565 376.167 530.507 267.234C359.549 158.363 236.521 123.351 156.267 115.539C116.14 111.633 86.702 114.527 67.3077 118.391C57.6105 120.323 50.4226 122.497 45.6645 124.186C43.2854 125.031 41.5127 125.754 40.3381 126.265C39.7511 126.52 39.3135 126.723 39.0236 126.861C38.8786 126.929 38.77 126.982 38.6989 127.017C38.6636 127.035 38.6375 127.048 38.6203 127.057L38.5969 127.069C38.5962 127.069 38.596 127.069 38.3667 126.625C38.1382 126.182 38.1384 126.18 38.14 126.179L38.1687 126.164C38.1882 126.154 38.2171 126.14 38.255 126.121ZM40.5033 119.079C40.5793 119.041 40.6924 118.986 40.8419 118.915C41.1419 118.773 41.5907 118.566 42.1881 118.306C43.3834 117.786 45.1769 117.054 47.5779 116.201C52.3803 114.497 59.6143 112.309 69.3596 110.368C88.8518 106.485 118.389 103.587 158.611 107.502C239.057 115.333 362.235 150.414 533.293 259.348C704.251 368.219 827.279 403.23 907.533 411.042C947.66 414.948 977.098 412.055 996.492 408.191C1006.19 406.259 1013.38 404.084 1018.13 402.395C1020.51 401.551 1022.29 400.828 1023.46 400.317C1024.05 400.061 1024.49 399.859 1024.78 399.721C1024.92 399.653 1025.03 399.599 1025.1 399.564C1025.14 399.547 1025.16 399.533 1025.18 399.524L1025.2 399.512C1025.2 399.515 1025.22 399.552 1025.43 399.956C1025.64 400.363 1025.66 400.398 1025.66 400.402L1025.63 400.417C1025.61 400.426 1025.58 400.441 1025.54 400.46C1025.47 400.498 1025.35 400.553 1025.2 400.624C1024.91 400.767 1024.46 400.974 1023.86 401.234C1022.66 401.754 1020.87 402.485 1018.47 403.338C1013.67 405.042 1006.43 407.23 996.687 409.172C977.195 413.055 947.658 415.952 907.436 412.037C826.99 404.207 703.813 369.125 532.755 260.192C361.797 151.321 238.769 116.309 158.515 108.497C118.388 104.591 88.9503 107.485 69.556 111.349C59.859 113.281 52.6709 115.455 47.9128 117.144C45.5339 117.988 43.761 118.712 42.5864 119.223C41.9995 119.478 41.5618 119.681 41.2719 119.819C41.1271 119.887 41.0183 119.94 40.9472 119.975C40.9121 119.993 40.8858 120.006 40.8686 120.015L40.8452 120.027C40.8445 120.027 40.8442 120.027 40.615 119.583C40.3865 119.14 40.3867 119.138 40.3883 119.137L40.417 119.122C40.4365 119.113 40.4656 119.098 40.5033 119.079ZM42.7512 112.036C42.8272 111.998 42.9403 111.943 43.0898 111.872C43.3897 111.73 43.8386 111.523 44.436 111.263C45.6313 110.743 47.4249 110.011 49.8258 109.159C54.6282 107.454 61.8623 105.266 71.6074 103.325C91.0996 99.4417 120.637 96.5441 160.859 100.459C241.305 108.29 364.483 143.372 535.541 252.305C706.499 361.176 829.527 396.187 909.781 403.999C949.908 407.905 979.346 405.012 998.74 401.148C1008.44 399.216 1015.62 397.041 1020.38 395.352C1022.76 394.508 1024.53 393.785 1025.71 393.274C1026.3 393.019 1026.73 392.816 1027.02 392.678C1027.17 392.61 1027.28 392.557 1027.35 392.521C1027.38 392.504 1027.41 392.49 1027.43 392.482L1027.45 392.469C1027.45 392.472 1027.47 392.509 1027.68 392.913C1027.89 393.321 1027.91 393.355 1027.91 393.359L1027.88 393.374C1027.86 393.384 1027.83 393.398 1027.79 393.417C1027.72 393.455 1027.6 393.51 1027.45 393.581C1027.15 393.724 1026.7 393.932 1026.11 394.191C1024.91 394.711 1023.12 395.443 1020.72 396.295C1015.92 398 1008.68 400.187 998.935 402.129C979.443 406.012 949.906 408.91 909.683 404.994C829.238 397.164 706.061 362.082 535.003 253.149C364.045 144.278 241.017 109.266 160.763 101.454C120.636 97.5484 91.1982 100.442 71.8039 104.306C62.107 106.238 54.9188 108.412 50.1606 110.101C47.7818 110.946 46.0089 111.669 44.8342 112.18C44.2475 112.435 43.8097 112.638 43.5198 112.776C43.375 112.845 43.2662 112.897 43.1951 112.932C43.16 112.95 43.1337 112.963 43.1165 112.972L43.0931 112.984C43.0924 112.984 43.0921 112.984 42.8629 112.54C42.6343 112.097 42.6346 112.095 42.6362 112.094L42.6648 112.08C42.6844 112.07 42.7135 112.055 42.7512 112.036ZM44.999 104.993C45.075 104.956 45.1881 104.901 45.3376 104.83C45.6376 104.687 46.0864 104.48 46.6838 104.22C47.8792 103.701 49.6726 102.968 52.0737 102.116C56.876 100.411 64.11 98.2235 73.8553 96.2821C93.3475 92.3989 122.884 89.5013 163.107 93.4165C243.553 101.247 366.73 136.329 537.788 245.263C708.747 354.133 831.774 389.144 912.029 396.956C952.155 400.862 981.594 397.969 1000.99 394.105C1010.69 392.173 1017.87 389.998 1022.63 388.309C1025.01 387.465 1026.78 386.742 1027.96 386.231C1028.54 385.976 1028.98 385.773 1029.27 385.636C1029.42 385.567 1029.52 385.514 1029.6 385.479C1029.63 385.461 1029.66 385.447 1029.67 385.439L1029.7 385.427C1029.7 385.43 1029.72 385.469 1029.93 385.87C1030.14 386.278 1030.16 386.313 1030.16 386.316L1030.13 386.331C1030.11 386.341 1030.08 386.356 1030.04 386.374C1029.96 386.412 1029.85 386.467 1029.7 386.539C1029.4 386.681 1028.95 386.889 1028.35 387.148C1027.16 387.668 1025.37 388.4 1022.97 389.252C1018.16 390.957 1010.93 393.144 1001.18 395.086C981.691 398.969 952.154 401.867 911.931 397.952C831.485 390.121 708.309 355.039 537.251 246.106C366.293 137.236 243.265 102.223 163.011 94.4114C122.884 90.5055 93.446 93.3995 74.0517 97.2631C64.3547 99.195 57.1666 101.369 52.4085 103.058C50.0296 103.903 48.2567 104.626 47.0821 105.137C46.4952 105.392 46.0576 105.595 45.7676 105.733C45.6228 105.802 45.5141 105.854 45.4429 105.89C45.4078 105.907 45.3815 105.92 45.3644 105.929L45.3409 105.941C45.3402 105.941 45.3399 105.941 45.1108 105.497C44.8822 105.054 44.8825 105.052 44.8841 105.052L44.9127 105.037C44.9323 105.027 44.9613 105.012 44.999 104.993ZM47.2465 97.9496C47.3224 97.9119 47.4356 97.8569 47.585 97.7858C47.885 97.6433 48.3339 97.4366 48.9312 97.1768C50.1266 96.657 51.9201 95.9243 54.3211 95.072C59.1235 93.3672 66.3575 91.1798 76.1027 89.2384C95.5949 85.3552 125.132 82.4576 165.354 86.3728C245.8 94.2033 368.978 129.285 540.036 238.219C710.994 347.089 834.022 382.101 914.276 389.913C954.403 393.818 983.841 390.925 1003.24 387.062C1012.93 385.13 1020.12 382.955 1024.88 381.266C1027.26 380.421 1029.03 379.698 1030.2 379.187C1030.79 378.932 1031.23 378.73 1031.52 378.592C1031.66 378.523 1031.77 378.47 1031.84 378.435C1031.88 378.417 1031.91 378.404 1031.92 378.395L1031.95 378.383C1031.95 378.383 1031.96 378.402 1032.18 378.827C1032.38 379.222 1032.4 379.267 1032.4 379.272L1032.37 379.287C1032.35 379.297 1032.33 379.312 1032.29 379.331C1032.21 379.368 1032.1 379.424 1031.95 379.495C1031.65 379.637 1031.2 379.845 1030.6 380.105C1029.41 380.625 1027.61 381.356 1025.21 382.208C1020.41 383.913 1013.18 386.101 1003.43 388.042C983.938 391.926 954.401 394.823 914.179 390.908C833.733 383.077 710.556 347.996 539.499 239.062C368.54 130.192 245.512 95.1796 165.258 87.3677C125.131 83.4618 95.6934 86.3558 76.2991 90.2195C66.6022 92.1513 59.414 94.3256 54.6559 96.0146C52.2771 96.8591 50.5041 97.5825 49.3295 98.0933C48.7428 98.3484 48.305 98.5514 48.015 98.6892C47.8703 98.758 47.7615 98.8106 47.6903 98.8458C47.6553 98.8632 47.629 98.8766 47.6118 98.8853L47.5884 98.8974C47.5877 98.8977 47.5875 98.8978 47.3582 98.4535C47.1298 98.0109 47.1299 98.0087 47.1315 98.0078L47.1601 97.9931C47.1797 97.9831 47.2088 97.9683 47.2465 97.9496ZM49.4939 90.9081C49.5698 90.8704 49.6829 90.8154 49.8325 90.7443C50.1324 90.6018 50.5812 90.3951 51.1787 90.1353C52.374 89.6155 54.1675 88.8828 56.5685 88.0305C61.3708 86.3257 68.6049 84.1383 78.3501 82.1969C97.8423 78.3136 127.379 75.4161 167.602 79.3313C248.048 87.1618 371.225 122.243 542.283 231.177C713.241 340.048 836.269 375.059 916.523 382.871C956.65 386.777 986.088 383.884 1005.48 380.02C1015.18 378.088 1022.37 375.913 1027.13 374.224C1029.5 373.38 1031.28 372.657 1032.45 372.146C1033.04 371.891 1033.48 371.688 1033.77 371.55C1033.91 371.482 1034.02 371.429 1034.09 371.393C1034.13 371.376 1034.15 371.362 1034.17 371.353L1034.19 371.341C1034.19 371.342 1034.2 371.358 1034.42 371.785C1034.63 372.192 1034.65 372.227 1034.65 372.231L1034.62 372.246C1034.6 372.256 1034.57 372.27 1034.53 372.289C1034.46 372.327 1034.35 372.382 1034.2 372.453C1033.9 372.596 1033.45 372.804 1032.85 373.063C1031.65 373.583 1029.86 374.315 1027.46 375.167C1022.66 376.872 1015.42 379.059 1005.68 381.001C986.186 384.884 956.649 387.782 916.426 383.866C835.98 376.036 712.804 340.954 541.746 232.021C370.788 123.15 247.76 88.138 167.505 80.3262C127.379 76.4204 97.9408 79.3143 78.5466 83.1779C68.8496 85.1098 61.6614 87.2841 56.9034 88.9731C54.5244 89.8176 52.7515 90.541 51.5769 91.0517C50.9901 91.3069 50.5524 91.5099 50.2625 91.6477C50.1176 91.7166 50.0089 91.7691 49.9378 91.8043C49.9027 91.8217 49.8763 91.8351 49.8592 91.8438L49.8358 91.8558C49.834 91.8538 49.8177 91.8229 49.6056 91.412C49.3862 90.9868 49.3778 90.9679 49.3789 90.9663L49.4075 90.9515C49.4271 90.9417 49.4561 90.9268 49.4939 90.9081ZM51.7418 83.8652C51.8177 83.8276 51.9307 83.7726 52.0804 83.7015C52.3803 83.5589 52.829 83.3523 53.4265 83.0924C54.6219 82.5726 56.4152 81.8401 58.8164 80.9877C63.6187 79.2829 70.8526 77.0955 80.598 75.154C100.09 71.2708 129.627 68.3733 169.85 72.2885C250.296 80.1189 373.473 115.201 544.531 224.135C715.49 333.005 838.517 368.016 918.771 375.828C958.898 379.734 988.336 376.841 1007.73 372.977C1017.43 371.045 1024.62 368.87 1029.37 367.181C1031.75 366.337 1033.52 365.614 1034.7 365.103C1035.29 364.848 1035.72 364.645 1036.01 364.508C1036.16 364.439 1036.27 364.386 1036.34 364.351C1036.37 364.333 1036.4 364.319 1036.42 364.311L1036.44 364.299C1036.44 364.299 1036.45 364.315 1036.67 364.742C1036.88 365.15 1036.9 365.185 1036.9 365.188L1036.87 365.203C1036.85 365.213 1036.82 365.228 1036.78 365.246C1036.71 365.284 1036.59 365.339 1036.44 365.411C1036.14 365.553 1035.7 365.761 1035.1 366.02C1033.9 366.54 1032.11 367.272 1029.71 368.124C1024.91 369.829 1017.67 372.016 1007.93 373.958C988.434 377.841 958.897 380.739 918.674 376.824C838.228 368.993 715.052 333.912 543.994 224.978C373.035 116.107 250.008 81.0952 169.753 73.2833C129.627 69.3775 100.189 72.2714 80.7944 76.1351C71.0973 78.067 63.9093 80.2412 59.1512 81.9303C56.7722 82.7748 54.9994 83.4981 53.8248 84.0089C53.2379 84.2642 52.8003 84.4671 52.5103 84.6049C52.3654 84.6738 52.2568 84.7262 52.1856 84.7615C52.1504 84.7789 52.1242 84.7923 52.1071 84.8009L52.0837 84.813C52.0828 84.813 52.0761 84.8006 51.8535 84.3692C51.631 83.9381 51.6254 83.9247 51.6268 83.9235L51.6554 83.9087C51.675 83.8988 51.7039 83.884 51.7418 83.8652ZM53.9896 76.8224C54.0656 76.7848 54.1787 76.7297 54.3282 76.6587C54.6281 76.5161 55.077 76.3094 55.6744 76.0496C56.8697 75.5298 58.6633 74.7972 61.0643 73.9448C65.8666 72.2401 73.1006 70.0527 82.8459 68.1112C102.338 64.228 131.875 61.3305 172.098 65.2456C252.543 73.0761 375.721 108.158 546.779 217.092C717.737 325.962 840.765 360.974 921.019 368.785C961.146 372.691 990.584 369.798 1009.98 365.935C1019.68 364.003 1026.86 361.828 1031.62 360.138C1034 359.294 1035.77 358.571 1036.95 358.06C1037.53 357.805 1037.97 357.603 1038.26 357.465C1038.41 357.396 1038.51 357.343 1038.59 357.308C1038.62 357.29 1038.65 357.276 1038.67 357.268L1038.69 357.256C1038.69 357.256 1038.7 357.273 1038.92 357.7C1039.13 358.107 1039.15 358.142 1039.15 358.145L1039.12 358.16C1039.1 358.17 1039.07 358.185 1039.03 358.204C1038.95 358.241 1038.84 358.297 1038.69 358.368C1038.39 358.51 1037.94 358.718 1037.35 358.978C1036.15 359.497 1034.36 360.229 1031.96 361.081C1027.15 362.786 1019.92 364.974 1010.17 366.915C990.681 370.798 961.144 373.696 920.922 369.781C840.476 361.95 717.299 326.869 546.242 217.935C375.283 109.065 252.255 74.0524 172.001 66.2405C131.875 62.3347 102.437 65.2286 83.0423 69.0923C73.3453 71.0241 66.1571 73.1984 61.3991 74.8875C59.0202 75.732 57.2472 76.4553 56.0727 76.9661C55.4859 77.2213 55.0481 77.4243 54.7582 77.5621C54.6134 77.6309 54.5046 77.6834 54.4335 77.7187C54.3985 77.736 54.3721 77.7494 54.355 77.7581L54.3315 77.7702C54.3304 77.7696 54.3197 77.7495 54.1013 77.3263C53.8891 76.9151 53.8744 76.8837 53.8746 76.8807L53.9033 76.8659C53.9228 76.856 53.9519 76.8411 53.9896 76.8224ZM56.2384 69.7791C56.3143 69.7415 56.4275 69.6864 56.5769 69.6154C56.8769 69.4728 57.3258 69.2661 57.9231 69.0063C59.1185 68.4865 60.912 67.7539 63.313 66.9016C68.1154 65.1968 75.3494 63.0094 85.0946 61.0679C104.587 57.1847 134.124 54.2872 174.346 58.2024C254.792 66.0329 377.97 101.115 549.028 210.048C719.986 318.919 843.014 353.93 923.268 361.742C963.395 365.648 992.833 362.755 1012.23 358.891C1021.92 356.959 1029.11 354.784 1033.87 353.095C1036.25 352.251 1038.02 351.528 1039.2 351.017C1039.78 350.762 1040.22 350.559 1040.51 350.421C1040.66 350.353 1040.76 350.3 1040.83 350.264C1040.87 350.247 1040.9 350.233 1040.91 350.225L1040.94 350.212C1040.94 350.215 1040.96 350.248 1041.17 350.656C1041.38 351.063 1041.39 351.098 1041.39 351.102L1041.37 351.117C1041.35 351.127 1041.32 351.142 1041.28 351.16C1041.2 351.198 1041.09 351.253 1040.94 351.324C1040.64 351.467 1040.19 351.675 1039.59 351.934C1038.4 352.454 1036.61 353.186 1034.2 354.038C1029.4 355.743 1022.17 357.93 1012.42 359.872C992.93 363.755 963.393 366.653 923.171 362.737C842.725 354.907 719.548 319.825 548.49 210.892C377.532 102.021 254.504 67.0092 174.25 59.1972C134.123 55.2914 104.685 58.1854 85.291 62.049C75.5941 63.9808 68.4059 66.1551 63.6478 67.8442C61.269 68.6887 59.496 69.412 58.3214 69.9228C57.7347 70.178 57.2969 70.381 57.0069 70.5188C56.8622 70.5876 56.7534 70.6401 56.6822 70.6754C56.6472 70.6927 56.6209 70.7061 56.6037 70.7148L56.5803 70.7269C56.5796 70.7273 56.5793 70.7272 56.3501 70.283C56.1215 69.8402 56.1218 69.8382 56.1234 69.8374L56.152 69.8226C56.1716 69.8127 56.2007 69.7978 56.2384 69.7791ZM58.4854 62.7368C58.5613 62.6991 58.6744 62.6441 58.8239 62.573C59.1238 62.4305 59.5727 62.2238 60.1701 61.9639C61.3654 61.4441 63.1589 60.7115 65.56 59.8592C70.3623 58.1544 77.5963 55.967 87.3416 54.0255C106.834 50.1423 136.371 47.2448 176.593 51.16C257.039 58.9904 380.216 94.072 551.275 203.006C722.233 311.876 845.261 346.888 925.515 354.7C965.642 358.606 995.08 355.713 1014.47 351.849C1024.17 349.917 1031.36 347.742 1036.12 346.053C1038.5 345.208 1040.27 344.485 1041.44 343.975C1042.03 343.719 1042.47 343.517 1042.76 343.379C1042.9 343.31 1043.01 343.257 1043.08 343.222C1043.12 343.205 1043.14 343.191 1043.16 343.182L1043.18 343.17C1043.19 343.173 1043.21 343.21 1043.41 343.614C1043.62 344.021 1043.64 344.056 1043.64 344.06L1043.61 344.074C1043.59 344.084 1043.56 344.099 1043.53 344.118C1043.45 344.156 1043.34 344.211 1043.19 344.282C1042.89 344.425 1042.44 344.632 1041.84 344.892C1040.65 345.412 1038.85 346.143 1036.45 346.995C1031.65 348.7 1024.41 350.888 1014.67 352.83C995.177 356.713 965.64 359.61 925.418 355.695C844.972 347.865 721.795 312.783 550.737 203.849C379.779 94.9789 256.751 59.9667 176.497 52.1549C136.37 48.249 106.932 51.143 87.538 55.0066C77.841 56.9385 70.6529 59.1127 65.8948 60.8018C63.5159 61.6463 61.743 62.3696 60.5684 62.8804C59.9816 63.1356 59.5438 63.3386 59.2539 63.4764C59.1091 63.5453 59.0003 63.5978 58.9292 63.633C58.8941 63.6504 58.8678 63.6638 58.8507 63.6724L58.8273 63.6845C58.8264 63.6844 58.819 63.6707 58.5971 63.2407C58.3889 62.8374 58.3708 62.7991 58.3704 62.795L58.399 62.7802C58.4185 62.7703 58.4476 62.7555 58.4854 62.7368ZM60.7332 55.6939C60.8092 55.6563 60.9222 55.6013 61.0718 55.5302C61.3717 55.3876 61.8205 55.181 62.418 54.9211C63.6133 54.4013 65.4067 53.6687 67.8078 52.8163C72.6102 51.1116 79.8442 48.9242 89.5895 46.9827C109.082 43.0995 138.619 40.202 178.841 44.1171C259.287 51.9476 382.465 87.0294 553.523 195.963C724.481 304.833 847.509 339.845 927.763 347.657C967.89 351.563 997.328 348.67 1016.72 344.806C1026.42 342.874 1033.61 340.699 1038.36 339.01C1040.74 338.165 1042.52 337.443 1043.69 336.932C1044.28 336.676 1044.72 336.474 1045.01 336.336C1045.15 336.268 1045.26 336.214 1045.33 336.179C1045.37 336.162 1045.39 336.148 1045.41 336.139L1045.43 336.127C1045.43 336.128 1045.44 336.144 1045.66 336.571C1045.87 336.968 1045.89 337.012 1045.89 337.017L1045.86 337.032C1045.84 337.041 1045.81 337.056 1045.77 337.075C1045.7 337.113 1045.58 337.168 1045.43 337.239C1045.13 337.382 1044.69 337.589 1044.09 337.849C1042.89 338.369 1041.1 339.1 1038.7 339.953C1033.9 341.657 1026.66 343.845 1016.92 345.787C997.425 349.67 967.888 352.567 927.665 348.652C847.22 340.822 724.043 305.74 552.985 196.807C382.027 87.9362 258.999 52.9239 178.745 45.112C138.618 41.2062 109.18 44.1001 89.7859 47.9638C80.0888 49.8957 72.9007 52.0699 68.1427 53.759C65.7637 54.6035 63.9909 55.3268 62.8163 55.8376C62.2294 56.0928 61.7917 56.2958 61.5018 56.4336C61.3569 56.5025 61.2482 56.5549 61.1771 56.5902C61.1419 56.6076 61.1157 56.6209 61.0985 56.6296L61.0751 56.6417C61.0728 56.6386 61.0532 56.6013 60.8449 56.1978C60.6208 55.7636 60.6168 55.7532 60.6182 55.7522L60.6469 55.7374C60.6664 55.7275 60.6954 55.7127 60.7332 55.6939ZM62.9811 48.6511C63.0571 48.6134 63.17 48.5585 63.3197 48.4873C63.6196 48.3448 64.0683 48.1381 64.6659 47.8783C65.8612 47.3585 67.6546 46.6259 70.0557 45.7735C74.858 44.0687 82.092 41.8814 91.8373 39.9399C111.329 36.0567 140.866 33.1591 181.089 37.0743C261.535 44.9048 384.712 79.9864 555.771 188.92C726.729 297.791 849.756 332.802 930.011 340.614C970.138 344.52 999.576 341.627 1018.97 337.763C1028.67 335.831 1035.85 333.656 1040.61 331.967C1042.99 331.123 1044.76 330.4 1045.94 329.889C1046.53 329.634 1046.96 329.431 1047.25 329.293C1047.4 329.225 1047.51 329.172 1047.58 329.136C1047.61 329.119 1047.64 329.105 1047.66 329.097L1047.68 329.084C1047.68 329.085 1047.69 329.101 1047.91 329.528C1048.12 329.936 1048.14 329.97 1048.14 329.974L1048.11 329.989C1048.09 329.999 1048.06 330.013 1048.02 330.032C1047.95 330.07 1047.83 330.125 1047.68 330.196C1047.38 330.339 1046.93 330.547 1046.34 330.806C1045.14 331.326 1043.35 332.057 1040.95 332.91C1036.15 334.615 1028.91 336.802 1019.17 338.744C999.673 342.627 970.136 345.525 929.913 341.609C849.467 333.779 726.291 298.697 555.233 189.764C384.275 80.8933 261.247 45.8811 180.993 38.0692C140.866 34.1634 111.428 37.0573 92.0338 40.921C82.3367 42.8528 75.1486 45.0271 70.3905 46.7161C68.0115 47.5607 66.2387 48.284 65.0641 48.7948C64.4772 49.05 64.0396 49.253 63.7497 49.3907C63.6047 49.4596 63.4961 49.5121 63.425 49.5473C63.3898 49.5648 63.3636 49.5781 63.3464 49.5868L63.323 49.5989C63.3218 49.598 63.3102 49.5762 63.0928 49.155C62.8702 48.7237 62.8648 48.7105 62.8661 48.7093L62.8947 48.6946C62.9143 48.6847 62.9432 48.6699 62.9811 48.6511ZM65.2289 41.6083C65.3049 41.5706 65.4179 41.5156 65.5675 41.4445C65.8675 41.302 66.3162 41.0953 66.9137 40.8355C68.109 40.3157 69.9025 39.5831 72.3036 38.7307C77.1059 37.0259 84.3399 34.8385 94.0852 32.897C113.577 29.0138 143.114 26.1163 183.337 30.0315C263.783 37.8619 386.96 72.9436 558.018 181.878C728.977 290.748 852.004 325.759 932.258 333.571C972.385 337.477 1001.82 334.584 1021.22 330.72C1030.91 328.788 1038.1 326.613 1042.86 324.924C1045.24 324.08 1047.01 323.357 1048.19 322.846C1048.77 322.591 1049.21 322.388 1049.5 322.251C1049.65 322.182 1049.75 322.129 1049.83 322.094C1049.86 322.076 1049.89 322.062 1049.9 322.054L1049.93 322.042C1049.93 322.042 1049.94 322.059 1050.16 322.485C1050.37 322.892 1050.38 322.927 1050.39 322.931L1050.36 322.946C1050.34 322.956 1050.31 322.971 1050.27 322.989C1050.19 323.027 1050.08 323.082 1049.93 323.154C1049.63 323.296 1049.18 323.504 1048.58 323.763C1047.39 324.283 1045.6 325.015 1043.2 325.867C1038.39 327.572 1031.16 329.76 1021.41 331.701C1001.92 335.584 972.384 338.482 932.161 334.567C851.715 326.736 728.539 291.655 557.481 182.721C386.523 73.8505 263.495 38.8382 183.24 31.0264C143.114 27.1205 113.676 30.0145 94.2816 33.8781C84.5846 35.81 77.3965 37.9843 72.6384 39.6733C70.2594 40.5178 68.4866 41.2411 67.312 41.7519C66.7251 42.0072 66.2874 42.2101 65.9975 42.3479C65.8526 42.4168 65.7439 42.4693 65.6728 42.5045C65.6377 42.5219 65.6114 42.5353 65.5943 42.544L65.5708 42.556C65.5693 42.5545 65.5547 42.527 65.3407 42.1122C65.1193 41.6832 65.1127 41.6678 65.1139 41.6665L65.1426 41.6517C65.1621 41.6418 65.1911 41.627 65.2289 41.6083ZM67.4768 34.5654C67.5527 34.5278 67.6659 34.4728 67.8154 34.4017C68.1153 34.2591 68.5641 34.0524 69.1616 33.7926C70.3569 33.2728 72.1504 32.5402 74.5514 31.6879C79.3537 29.9831 86.5878 27.7957 96.333 25.8542C115.825 21.971 145.362 19.0735 185.585 22.9887C266.031 30.8191 389.208 65.9008 560.266 174.835C731.224 283.705 854.252 318.717 934.506 326.528C974.633 330.434 1004.07 327.541 1023.47 323.678C1033.16 321.746 1040.35 319.571 1045.11 317.881C1047.49 317.037 1049.26 316.314 1050.43 315.803C1051.02 315.548 1051.46 315.346 1051.75 315.208C1051.89 315.139 1052 315.086 1052.07 315.051C1052.11 315.033 1052.14 315.019 1052.15 315.011L1052.18 314.999C1052.18 314.999 1052.19 315.016 1052.41 315.443C1052.62 315.85 1052.63 315.885 1052.63 315.888L1052.6 315.903C1052.58 315.913 1052.56 315.928 1052.52 315.947C1052.44 315.984 1052.33 316.04 1052.18 316.111C1051.88 316.253 1051.43 316.461 1050.83 316.721C1049.64 317.24 1047.84 317.972 1045.44 318.824C1040.64 320.529 1033.41 322.717 1023.66 324.658C1004.17 328.541 974.632 331.439 934.409 327.524C853.963 319.693 730.786 284.612 559.729 175.678C388.771 66.8077 265.743 31.7954 185.488 23.9835C145.362 20.0777 115.924 22.9716 96.5295 26.8353C86.8325 28.7672 79.6443 30.9414 74.8863 32.6305C72.5074 33.475 70.7344 34.1983 69.5598 34.7091C68.973 34.9643 68.5353 35.1673 68.2454 35.3051C68.1006 35.3739 67.9918 35.4264 67.9207 35.4617C67.8856 35.4791 67.8592 35.4925 67.8421 35.5011L67.8187 35.5132C67.8172 35.5117 67.8029 35.4847 67.5885 35.0693C67.3719 34.6496 67.361 34.6257 67.3618 34.6237L67.3904 34.6089C67.41 34.599 67.4391 34.5841 67.4768 34.5654ZM69.7247 27.5226C69.8006 27.485 69.9136 27.43 70.0633 27.3589C70.3632 27.2163 70.8119 27.0096 71.4094 26.7498C72.6048 26.23 74.3982 25.4974 76.7993 24.645C81.6016 22.9402 88.8356 20.7529 98.5809 18.8114C118.073 14.9282 147.61 12.0306 187.833 15.9458C268.279 23.7763 391.456 58.8579 562.514 167.792C733.472 276.662 856.5 311.674 936.754 319.486C976.881 323.391 1006.32 320.498 1025.71 316.635C1035.41 314.703 1042.6 312.528 1047.36 310.839C1049.74 309.994 1051.51 309.271 1052.68 308.76C1053.27 308.505 1053.71 308.303 1054 308.165C1054.14 308.096 1054.25 308.043 1054.32 308.008C1054.36 307.99 1054.38 307.977 1054.4 307.968L1054.42 307.956C1054.43 307.958 1054.44 307.986 1054.65 308.4C1054.86 308.807 1054.88 308.842 1054.88 308.845L1054.85 308.86C1054.83 308.87 1054.8 308.885 1054.77 308.904C1054.69 308.941 1054.58 308.997 1054.43 309.068C1054.13 309.21 1053.68 309.418 1053.08 309.678C1051.89 310.198 1050.09 310.929 1047.69 311.781C1042.89 313.486 1035.65 315.674 1025.91 317.615C1006.42 321.499 976.88 324.396 936.657 320.481C856.211 312.65 733.034 277.569 561.977 168.635C391.018 59.7647 267.99 24.7526 187.736 16.9407C147.609 13.0349 118.172 15.9288 98.7774 19.7925C89.0802 21.7243 81.8922 23.8986 77.1341 25.5877C74.7551 26.4322 72.9823 27.1555 71.8077 27.6663C71.2208 27.9215 70.7832 28.1245 70.4932 28.2623C70.3483 28.3311 70.2397 28.3836 70.1685 28.4189C70.1334 28.4363 70.1071 28.4496 70.09 28.4583L70.0666 28.4704C70.0657 28.4703 70.0588 28.4575 69.8364 28.0265C69.621 27.6092 69.609 27.5831 69.6097 27.5809L69.6383 27.5661C69.6579 27.5562 69.6868 27.5414 69.7247 27.5226ZM71.973 20.4806C72.049 20.443 72.1619 20.388 72.3116 20.3169C72.6115 20.1743 73.0602 19.9677 73.6578 19.7078C74.8531 19.188 76.6464 18.4555 79.0476 17.6031C83.85 15.8983 91.0838 13.7109 100.829 11.7694C120.321 7.88622 149.858 4.98867 190.081 8.90387C270.527 16.7344 393.704 51.816 564.762 160.75C735.721 269.62 858.748 304.632 939.003 312.444C979.13 316.35 1008.57 313.456 1027.96 309.593C1037.66 307.661 1044.85 305.486 1049.6 303.797C1051.98 302.952 1053.76 302.229 1054.93 301.719C1055.52 301.463 1055.96 301.261 1056.25 301.123C1056.39 301.054 1056.5 301.001 1056.57 300.966C1056.6 300.948 1056.63 300.935 1056.65 300.926L1056.67 300.914C1056.67 300.917 1056.69 300.954 1056.9 301.358C1057.11 301.765 1057.13 301.8 1057.13 301.803L1057.1 301.818C1057.08 301.828 1057.05 301.843 1057.01 301.862C1056.94 301.899 1056.82 301.955 1056.67 302.026C1056.37 302.169 1055.93 302.376 1055.33 302.636C1054.13 303.156 1052.34 303.887 1049.94 304.739C1045.14 306.444 1037.9 308.632 1028.16 310.573C1008.66 314.457 979.128 317.354 938.905 313.439C858.459 305.608 735.283 270.527 564.225 161.593C393.267 52.7229 270.239 17.7107 189.985 9.89875C149.858 5.99289 120.42 8.88686 101.026 12.7505C91.3285 14.6824 84.1406 16.8566 79.3824 18.5457C77.0034 19.3902 75.2307 20.1135 74.056 20.6243C73.4691 20.8796 73.0315 21.0825 72.7416 21.2203C72.5966 21.2892 72.488 21.3416 72.4169 21.3769C72.3816 21.3943 72.3555 21.4076 72.3383 21.4163L72.3149 21.4284C72.3142 21.4288 72.3138 21.4286 72.0847 20.9846C71.8561 20.5417 71.8564 20.5397 71.858 20.5389L71.8866 20.5241C71.9062 20.5142 71.9351 20.4994 71.973 20.4806ZM74.2204 13.4369C74.2964 13.3993 74.4093 13.3443 74.559 13.2732C74.8589 13.1306 75.3076 12.924 75.9052 12.6641C77.1005 12.1443 78.8939 11.4118 81.295 10.5594C86.0974 8.85458 93.3312 6.66723 103.077 4.72573C122.569 0.842509 152.106 -2.05502 192.328 1.86017C272.774 9.69062 395.952 44.7723 567.01 153.706C737.968 262.577 860.996 297.588 941.25 305.4C981.377 309.306 1010.81 306.413 1030.21 302.549C1039.91 300.617 1047.09 298.442 1051.85 296.753C1054.23 295.908 1056 295.186 1057.18 294.675C1057.76 294.419 1058.2 294.217 1058.49 294.079C1058.64 294.011 1058.75 293.957 1058.82 293.922C1058.85 293.905 1058.88 293.891 1058.9 293.882L1058.92 293.87C1058.92 293.871 1058.93 293.887 1059.15 294.314C1059.35 294.711 1059.38 294.755 1059.38 294.76L1059.35 294.775C1059.33 294.784 1059.3 294.799 1059.26 294.818C1059.19 294.856 1059.07 294.911 1058.92 294.982C1058.62 295.125 1058.17 295.332 1057.58 295.592C1056.38 296.112 1054.59 296.843 1052.19 297.696C1047.38 299.4 1040.15 301.588 1030.4 303.53C1010.91 307.413 981.375 310.31 941.153 306.395C860.707 298.565 737.53 263.483 566.472 154.55C395.514 45.6792 272.486 10.6669 192.232 2.85505C152.105 -1.0508 122.667 1.84316 103.273 5.70682C93.5759 7.63868 86.388 9.81292 81.6299 11.502C79.2508 12.3465 77.4781 13.0698 76.3034 13.5806C75.7165 13.8359 75.2789 14.0388 74.989 14.1766C74.844 14.2455 74.7354 14.2979 74.6643 14.3332C74.6291 14.3506 74.6029 14.3639 74.5857 14.3726L74.5623 14.3847C74.5603 14.3822 74.5425 14.3485 74.3321 13.9409C74.1037 13.4983 74.1038 13.496 74.1054 13.4952L74.134 13.4804C74.1536 13.4705 74.1825 13.4557 74.2204 13.4369Z" fill="url(#paint0_radial_1_647)"/>
<defs>
<radialGradient id="paint0_radial_1_647" cx="0" cy="0" r="1" gradientTransform="matrix(284.144 341.992 -358.563 298.093 479.474 248.609)" gradientUnits="userSpaceOnUse">
<stop stop-color="#10B981" stop-opacity="0.46"/>
<stop offset="0.406987" stop-color="#D8E3D6" stop-opacity="0.28"/>
<stop offset="1" stop-color="#6C9820" stop-opacity="0.05"/>
</radialGradient>
</defs>
</svg>
