<svg width="34" height="34" viewBox="0 0 34 34" fill="none" xmlns="http://www.w3.org/2000/svg">
<path d="M26.4903 4.18262C27.2299 4.18262 27.9391 4.4764 28.462 4.99934C28.985 5.52228 29.2788 6.23153 29.2788 6.97108V26.4903C29.2788 27.2299 28.985 27.9391 28.462 28.462C27.9391 28.985 27.2299 29.2788 26.4903 29.2788H6.97108C6.23153 29.2788 5.52228 28.985 4.99934 28.462C4.4764 27.9391 4.18262 27.2299 4.18262 26.4903V6.97108C4.18262 6.23153 4.4764 5.52228 4.99934 4.99934C5.52228 4.4764 6.23153 4.18262 6.97108 4.18262H26.4903ZM25.7932 25.7932V18.4038C25.7932 17.1983 25.3143 16.0422 24.4619 15.1898C23.6096 14.3374 22.4535 13.8586 21.248 13.8586C20.0629 13.8586 18.6826 14.5836 18.0134 15.6711V14.1235H14.1235V25.7932H18.0134V18.9196C18.0134 17.8461 18.8778 16.9677 19.9514 16.9677C20.4691 16.9677 20.9655 17.1734 21.3316 17.5394C21.6976 17.9055 21.9033 18.402 21.9033 18.9196V25.7932H25.7932ZM9.59223 11.9345C10.2135 11.9345 10.8092 11.6878 11.2485 11.2485C11.6878 10.8092 11.9345 10.2135 11.9345 9.59223C11.9345 8.2956 10.8889 7.23598 9.59223 7.23598C8.96732 7.23598 8.36799 7.48423 7.92611 7.92611C7.48423 8.36799 7.23598 8.96732 7.23598 9.59223C7.23598 10.8889 8.2956 11.9345 9.59223 11.9345ZM11.5302 25.7932V14.1235H7.66819V25.7932H11.5302Z" fill="#0F2228"/>
</svg>
