<svg width="34" height="34" viewBox="0 0 34 34" fill="none" xmlns="http://www.w3.org/2000/svg">
<path d="M10.8751 2.78857H22.5867C27.0482 2.78857 30.6732 6.41357 30.6732 10.8751V22.5867C30.6732 24.7313 29.8212 26.7882 28.3047 28.3047C26.7882 29.8212 24.7313 30.6732 22.5867 30.6732H10.8751C6.41357 30.6732 2.78857 27.0482 2.78857 22.5867V10.8751C2.78857 8.73043 3.64055 6.67359 5.15707 5.15707C6.67359 3.64055 8.73043 2.78857 10.8751 2.78857ZM10.5963 5.57704C9.26508 5.57704 7.98842 6.10585 7.04713 7.04713C6.10585 7.98842 5.57704 9.26508 5.57704 10.5963V22.8655C5.57704 25.64 7.82175 27.8847 10.5963 27.8847H22.8655C24.1967 27.8847 25.4733 27.3559 26.4146 26.4146C27.3559 25.4733 27.8847 24.1967 27.8847 22.8655V10.5963C27.8847 7.82175 25.64 5.57704 22.8655 5.57704H10.5963ZM24.0506 7.66838C24.5128 7.66838 24.9561 7.852 25.2829 8.17883C25.6098 8.50567 25.7934 8.94895 25.7934 9.41117C25.7934 9.87339 25.6098 10.3167 25.2829 10.6435C24.9561 10.9703 24.5128 11.154 24.0506 11.154C23.5884 11.154 23.1451 10.9703 22.8183 10.6435C22.4914 10.3167 22.3078 9.87339 22.3078 9.41117C22.3078 8.94895 22.4914 8.50567 22.8183 8.17883C23.1451 7.852 23.5884 7.66838 24.0506 7.66838ZM16.7309 9.75973C18.5797 9.75973 20.3529 10.4942 21.6602 11.8015C22.9676 13.1089 23.702 14.882 23.702 16.7309C23.702 18.5797 22.9676 20.3529 21.6602 21.6602C20.3529 22.9676 18.5797 23.702 16.7309 23.702C14.882 23.702 13.1089 22.9676 11.8015 21.6602C10.4942 20.3529 9.75973 18.5797 9.75973 16.7309C9.75973 14.882 10.4942 13.1089 11.8015 11.8015C13.1089 10.4942 14.882 9.75973 16.7309 9.75973ZM16.7309 12.5482C15.6216 12.5482 14.5577 12.9889 13.7733 13.7733C12.9889 14.5577 12.5482 15.6216 12.5482 16.7309C12.5482 17.8402 12.9889 18.9041 13.7733 19.6885C14.5577 20.4729 15.6216 20.9136 16.7309 20.9136C17.8402 20.9136 18.9041 20.4729 19.6885 19.6885C20.4729 18.9041 20.9136 17.8402 20.9136 16.7309C20.9136 15.6216 20.4729 14.5577 19.6885 13.7733C18.9041 12.9889 17.8402 12.5482 16.7309 12.5482Z" fill="#0F2228"/>
</svg>
