<svg width="155" height="34" viewBox="0 0 155 34" fill="none" xmlns="http://www.w3.org/2000/svg">
<path d="M33.9202 13.8206V16.949C33.9202 24.6539 27.651 30.9232 19.946 30.9232C12.2411 30.9232 5.97184 24.6539 5.97184 16.949C5.97184 9.24406 12.2411 2.97477 19.946 2.97477H21.5416V0H19.946C10.5986 0 2.99707 7.60465 2.99707 16.949C2.99707 26.2933 10.6017 33.8979 19.946 33.8979C29.2904 33.8979 36.895 26.2933 36.895 16.949V13.8206H33.9202Z" fill="#4CDB78"/>
<path d="M27.7133 13.8198V16.9513C27.7133 18.2083 26.6914 19.2302 25.4344 19.2302H21.466V13.8198H18.4912V19.2302H12.2V13.9358H0V16.9106H9.22523V22.205H25.4376C28.334 22.205 30.6912 19.8477 30.6912 16.9513V13.8198H27.7164H27.7133Z" fill="#4CDB78"/>
<path d="M70.3299 13.5398V19.6033C70.3299 21.2225 69.8864 22.4756 69.0029 23.3591C68.1194 24.2426 66.8597 24.686 65.2271 24.686C64.4376 24.686 63.7389 24.5651 63.1342 24.3198C62.5295 24.0746 62.0223 23.6816 61.6124 23.1374C61.2026 23.6816 60.7021 24.078 60.1008 24.3198C59.5028 24.5651 58.794 24.686 57.9777 24.686C56.3316 24.686 55.0719 24.2426 54.2018 23.3591C53.3317 22.4756 52.895 21.2225 52.895 19.6033V13.5398H56.0796V19.3581C56.0796 20.2685 56.2375 20.9404 56.55 21.3703C56.8624 21.8003 57.3528 22.012 58.0213 22.012C58.6898 22.012 59.2038 21.7936 59.533 21.3603C59.8589 20.9235 60.0235 20.2584 60.0235 19.3581V13.5398H63.2081V19.3581C63.2081 20.2551 63.3727 20.9235 63.6986 21.3603C64.0244 21.797 64.5283 22.012 65.2103 22.012C65.8922 22.012 66.3659 21.797 66.6817 21.3703C66.9941 20.9404 67.152 20.2719 67.152 19.3581V13.5398H70.3366H70.3299Z" fill="#0F2228"/>
<path d="M80.0343 21.8808C80.4777 21.7095 80.8875 21.4407 81.2705 21.0745L82.9636 22.9121C81.9289 24.0946 80.4172 24.6892 78.4319 24.6892C77.1923 24.6892 76.0971 24.4473 75.1465 23.9635C74.1924 23.4798 73.4601 22.8113 72.9427 21.9513C72.4254 21.0947 72.1667 20.1205 72.1667 19.0321C72.1667 17.9437 72.4221 16.9862 72.9327 16.1229C73.4433 15.2596 74.1454 14.5843 75.0356 14.1006C75.9258 13.6168 76.9303 13.375 78.0456 13.375C79.0937 13.375 80.0477 13.5967 80.9043 14.0401C81.761 14.4836 82.4463 15.1218 82.9569 15.9583C83.4675 16.7948 83.7228 17.7858 83.7228 18.9279L75.5966 20.5001C75.8284 21.0443 76.1912 21.4542 76.6884 21.7263C77.1856 21.9984 77.7936 22.1361 78.5159 22.1361C79.0869 22.1361 79.5942 22.0521 80.0376 21.8808H80.0343ZM76.0837 16.563C75.5798 17.0803 75.3144 17.7959 75.2876 18.7062L80.6356 17.6648C80.4844 17.0937 80.1787 16.6369 79.7185 16.2976C79.2549 15.9583 78.6973 15.787 78.0456 15.787C77.2427 15.787 76.5876 16.0457 76.0871 16.563H76.0837Z" fill="#0F2228"/>
<path d="M94.9405 14.0801C95.777 14.5504 96.4354 15.2088 96.909 16.0621C97.3861 16.912 97.6246 17.903 97.6246 19.0317C97.6246 20.1604 97.3861 21.1514 96.909 22.0013C96.432 22.8512 95.777 23.513 94.9405 23.9833C94.104 24.4536 93.1735 24.6888 92.1523 24.6888C90.6406 24.6888 89.4917 24.2117 88.7022 23.2611V24.5275H85.6587V9.38037H88.8433V14.7082C89.6462 13.8247 90.7481 13.3813 92.1523 13.3813C93.1735 13.3813 94.1007 13.6165 94.9405 14.0868V14.0801ZM93.6136 21.2455C94.1376 20.6945 94.3996 19.9555 94.3996 19.0317C94.3996 18.1079 94.1376 17.3688 93.6136 16.8179C93.0895 16.267 92.4176 15.9915 91.6013 15.9915C90.785 15.9915 90.1131 16.267 89.5891 16.8179C89.065 17.3688 88.803 18.1079 88.803 19.0317C88.803 19.9555 89.065 20.6945 89.5891 21.2455C90.1131 21.7964 90.785 22.0718 91.6013 22.0718C92.4176 22.0718 93.0895 21.7964 93.6136 21.2455Z" fill="#0F2228"/>
<path d="M101.696 23.9635C100.762 23.4798 100.036 22.8113 99.5124 21.9513C98.9883 21.0947 98.7263 20.1205 98.7263 19.0321C98.7263 17.9437 98.9883 16.9694 99.5124 16.1128C100.036 15.2562 100.765 14.5843 101.696 14.1006C102.626 13.6168 103.678 13.375 104.85 13.375C106.023 13.375 107.017 13.6168 107.88 14.1006C108.744 14.5843 109.375 15.273 109.768 16.1733L107.299 17.5002C106.728 16.4924 105.905 15.9885 104.83 15.9885C104 15.9885 103.312 16.2606 102.768 16.8049C102.223 17.3491 101.951 18.0915 101.951 19.0287C101.951 19.966 102.223 20.7084 102.768 21.2526C103.312 21.7968 104 22.0689 104.83 22.0689C105.919 22.0689 106.742 21.565 107.299 20.5572L109.768 21.9043C109.372 22.7743 108.744 23.4563 107.88 23.9468C107.017 24.4372 106.006 24.6824 104.85 24.6824C103.695 24.6824 102.63 24.4406 101.696 23.9569V23.9635Z" fill="#0F2228"/>
<path d="M121.298 14.6007C122.134 15.417 122.554 16.6298 122.554 18.2355V24.5242H119.369V18.726C119.369 17.8559 119.178 17.2042 118.798 16.7776C118.419 16.3476 117.864 16.136 117.145 16.136C116.343 16.136 115.701 16.3845 115.227 16.8817C114.75 17.3789 114.512 18.1179 114.512 19.0955V24.5275H111.327V9.38037H114.512V14.6881C114.935 14.2648 115.442 13.9423 116.044 13.7172C116.642 13.4921 117.297 13.3813 118.002 13.3813C119.363 13.3813 120.461 13.7911 121.301 14.6075L121.298 14.6007Z" fill="#0F2228"/>
<path d="M132.403 21.8808C132.846 21.7095 133.256 21.4407 133.639 21.0745L135.332 22.9121C134.297 24.0946 132.786 24.6892 130.8 24.6892C129.561 24.6892 128.466 24.4473 127.515 23.9635C126.561 23.4798 125.828 22.8113 125.311 21.9513C124.794 21.0947 124.535 20.1205 124.535 19.0321C124.535 17.9437 124.79 16.9862 125.301 16.1229C125.812 15.2596 126.514 14.5843 127.404 14.1006C128.294 13.6168 129.299 13.375 130.414 13.375C131.462 13.375 132.416 13.5967 133.273 14.0401C134.129 14.4836 134.815 15.1218 135.325 15.9583C135.836 16.7948 136.091 17.7858 136.091 18.9279L127.965 20.5001C128.197 21.0443 128.56 21.4542 129.057 21.7263C129.554 21.9984 130.162 22.1361 130.884 22.1361C131.455 22.1361 131.963 22.0521 132.406 21.8808H132.403ZM128.452 16.563C127.948 17.0803 127.683 17.7959 127.656 18.7062L133.004 17.6648C132.853 17.0937 132.547 16.6369 132.087 16.2976C131.623 15.9583 131.066 15.787 130.414 15.787C129.611 15.787 128.956 16.0457 128.455 16.563H128.452Z" fill="#0F2228"/>
<path d="M141.131 13.7846H143.009V16.2336H141.212V24.521H138.027V13.2908C138.027 12.0378 138.397 11.0434 139.139 10.3111C139.881 9.5754 140.926 9.20923 142.273 9.20923C142.75 9.20923 143.204 9.25961 143.63 9.36374C144.06 9.46452 144.417 9.61235 144.702 9.80383L143.866 12.1117C143.499 11.853 143.069 11.7254 142.579 11.7254C141.611 11.7254 141.131 12.2561 141.131 13.3177V13.788V13.7846Z" fill="#0F2228"/>
<path d="M146.358 24.3483C145.488 24.1233 144.792 23.8411 144.275 23.5018L145.337 21.2141C145.827 21.5265 146.418 21.7819 147.114 21.9801C147.809 22.1783 148.488 22.2757 149.156 22.2757C150.503 22.2757 151.179 21.9431 151.179 21.2746C151.179 20.9621 150.994 20.7371 150.628 20.5994C150.261 20.465 149.694 20.3474 148.935 20.2534C148.038 20.119 147.295 19.9611 146.711 19.783C146.126 19.605 145.619 19.2926 145.189 18.8424C144.759 18.3923 144.547 17.754 144.547 16.9243C144.547 16.2289 144.749 15.6141 145.149 15.0766C145.552 14.5391 146.136 14.1192 146.905 13.8203C147.675 13.5213 148.582 13.3701 149.63 13.3701C150.406 13.3701 151.179 13.4541 151.948 13.6254C152.717 13.7968 153.352 14.0319 153.856 14.3309L152.794 16.5984C151.827 16.0542 150.772 15.7821 149.63 15.7821C148.948 15.7821 148.437 15.8761 148.098 16.0676C147.759 16.2591 147.587 16.5044 147.587 16.8033C147.587 17.1426 147.772 17.3811 148.138 17.5189C148.505 17.6566 149.092 17.7843 149.895 17.9052C150.792 18.0564 151.528 18.2142 152.099 18.3856C152.67 18.5569 153.167 18.8659 153.591 19.3161C154.014 19.7662 154.222 20.3911 154.222 21.1939C154.222 21.8759 154.017 22.4806 153.611 23.0113C153.201 23.5421 152.606 23.9553 151.824 24.2476C151.041 24.5399 150.11 24.6876 149.035 24.6876C148.122 24.6876 147.231 24.5768 146.361 24.3517L146.358 24.3483Z" fill="#0F2228"/>
</svg>
